<svg width="19" height="18" viewBox="0 0 19 18" fill="none" xmlns="http://www.w3.org/2000/svg">
<path fill-rule="evenodd" clip-rule="evenodd" d="M6.25772 10.1782C6.17463 10.1782 6.00627 10.1098 5.91991 10.0827L3.87664 9.46432C3.56397 9.33848 3.63284 9.07703 3.87992 8.9425C3.90834 8.92623 3.91599 8.91972 3.9466 8.90453L12.17 5.7465C12.3613 5.67056 12.921 5.43298 13.1025 5.43298C13.2217 5.43298 13.3233 5.50567 13.3857 5.57184C13.601 5.80075 13.4731 6.22493 13.4119 6.48529L11.983 13.1528C11.9295 13.3644 11.8442 13.6551 11.5687 13.6551C11.2593 13.6551 11.0341 13.4468 10.8067 13.2776L8.9132 11.8814C8.63115 12.1851 7.78279 13.1409 7.35752 13.1409L7.54118 10.8356L11.8005 6.92575C11.8005 6.85632 11.6758 6.84981 11.6124 6.865L6.25662 10.1803L6.25772 10.1782ZM18.1391 9C18.1391 4.02917 14.0788 0 9.06954 0C4.0603 0 0 4.02917 0 9C0 13.9708 4.0603 18 9.06954 18C14.0788 18 18.1391 13.9708 18.1391 9Z" fill="white"/>
</svg>
