<svg width="70" height="70" viewBox="0 0 70 70" fill="none" xmlns="http://www.w3.org/2000/svg">
<g clip-path="url(#clip0)">
<path d="M66.7828 30.687H54.6565V19.586H64.5911C66.3647 19.586 67.8082 18.143 67.8082 16.3689V3.21716C67.8082 1.44356 66.3647 0 64.5911 0H42.6717C40.8976 0 39.4546 1.44356 39.4546 3.21716V8.76762H32.7377V5.40894C32.7377 2.42676 30.311 0 27.3283 0H5.40894C2.42676 0 0 2.42676 0 5.40894V66.7828C0 68.5564 1.44356 70 3.21716 70H29.52C31.2942 70 32.7372 68.5564 32.7372 66.7828V51.3689H37.2623V66.7828C37.2623 68.557 38.7058 70 40.4794 70H66.7828C68.5564 70 70 68.5564 70 66.7828V33.9041C70 32.13 68.5564 30.687 66.7828 30.687ZM67.9492 33.9041V39.4546H58.8206C58.9621 39.0925 59.0406 38.6994 59.0406 38.2882C59.0406 36.5141 57.597 35.0705 55.8234 35.0705C54.0493 35.0705 52.6057 36.5141 52.6057 38.2882C52.6057 38.6994 52.6842 39.0925 52.8258 39.4546H50.273V36.0959C50.273 35.5298 49.8137 35.0705 49.2476 35.0705H42.6717C42.1056 35.0705 41.6463 35.5298 41.6463 36.0959V39.4546H39.3136V33.9041C39.3136 33.2606 39.837 32.7377 40.48 32.7377H66.7828C67.4258 32.7377 67.9492 33.2606 67.9492 33.9041ZM54.6565 38.2877C54.6565 37.6447 55.1799 37.1213 55.8229 37.1213C56.4664 37.1213 56.9898 37.6447 56.9898 38.2877C56.9898 38.9312 56.4664 39.454 55.8229 39.454C55.1799 39.454 54.6565 38.9312 54.6565 38.2877ZM43.6971 39.4546V37.1213H48.2222V39.4546H43.6971ZM64.5911 17.5352H61.2324V8.62663H65.7574V16.3689C65.7574 17.0119 65.2341 17.5352 64.5911 17.5352ZM65.7574 3.21716V6.57585H61.2324V2.05078H64.5905C65.2341 2.05078 65.7574 2.57416 65.7574 3.21716ZM41.5054 3.21716C41.5054 2.57416 42.0287 2.05078 42.6717 2.05078H59.1816V17.5352H42.6717C42.0282 17.5352 41.5054 17.0119 41.5054 16.3689V3.21716ZM2.05078 45.8889H4.31305C4.35204 45.8889 4.38354 45.9204 4.38354 45.9594V53.6311C4.38354 53.6701 4.35204 53.7016 4.31305 53.7016H2.05078V45.8889ZM2.05078 27.2578H4.31305C4.35204 27.2578 4.38354 27.2893 4.38354 27.3283V35C4.38354 35.039 4.35204 35.0705 4.31305 35.0705H2.05078V27.2578ZM30.687 66.7828C30.687 67.4258 30.1636 67.9492 29.5206 67.9492H3.21716C2.57416 67.9492 2.05078 67.4258 2.05078 66.7828V55.7524H4.31305C5.48317 55.7524 6.43433 54.8013 6.43433 53.6311V45.9594C6.43433 44.7898 5.48317 43.8381 4.31305 43.8381H2.05078V41.5054H25.1365C25.7026 41.5054 26.1619 41.0461 26.1619 40.48C26.1619 39.9139 25.7026 39.4546 25.1365 39.4546H2.05078V37.1218H4.31305C5.48317 37.1218 6.43433 36.1701 6.43433 35.0005V27.3288C6.43433 26.1587 5.48317 25.207 4.31305 25.207H2.05078V5.40894C2.05078 3.55736 3.55736 2.05078 5.40894 2.05078H27.3283C29.1804 2.05078 30.6864 3.55736 30.6864 5.40894V39.454H29.5206C28.9545 39.454 28.4952 39.9133 28.4952 40.4794C28.4952 41.0461 28.9545 41.5048 29.5206 41.5048H30.6864V66.7828H30.687ZM32.7377 49.3181V10.8184H39.4546V16.3689C39.4546 18.143 40.8976 19.586 42.6717 19.586H52.6057V30.687H40.48C38.7058 30.687 37.2628 32.13 37.2628 33.9041V49.3181H32.7377ZM66.7828 67.9492H40.48C39.8364 67.9492 39.3136 67.4258 39.3136 66.7828V41.5054H67.9492V66.7828C67.9492 67.4258 67.4258 67.9492 66.7828 67.9492Z" fill="#22BFEA"/>
<path d="M18.5605 8.76758H14.1765C13.0069 8.76758 12.0552 9.71927 12.0552 10.8889V13.0806C12.0552 14.2507 13.0069 15.2019 14.1765 15.2019H18.5605C19.7301 15.2019 20.6818 14.2507 20.6818 13.0806V10.8889C20.6818 9.71927 19.7301 8.76758 18.5605 8.76758ZM18.631 13.0806C18.631 13.1196 18.5995 13.1511 18.5605 13.1511H14.1765C14.1375 13.1511 14.106 13.1196 14.106 13.0806V10.8889C14.106 10.8499 14.1375 10.8184 14.1765 10.8184H18.5605C18.5995 10.8184 18.631 10.8499 18.631 10.8889V13.0806Z" fill="#22BFEA"/>
<path d="M61.3027 37.1213H64.5904C65.157 37.1213 65.6158 36.662 65.6158 36.0959C65.6158 35.5298 65.157 35.0706 64.5904 35.0706H61.3027C60.7366 35.0706 60.2773 35.5298 60.2773 36.0959C60.2773 36.662 60.7366 37.1213 61.3027 37.1213Z" fill="#22BFEA"/>
<path d="M53.6311 44.9341C48.2313 44.9341 43.8381 49.3272 43.8381 54.7271C43.8381 60.127 48.2313 64.5201 53.6311 64.5201C59.031 64.5201 63.4242 60.127 63.4242 54.7271C63.4242 49.3272 59.031 44.9341 53.6311 44.9341ZM53.6311 62.4693C49.3619 62.4693 45.8889 58.9964 45.8889 54.7271C45.8889 50.4578 49.3624 46.9849 53.6311 46.9849C57.9004 46.9849 61.3734 50.4584 61.3734 54.7271C61.3734 58.9964 57.9004 62.4693 53.6311 62.4693Z" fill="#22BFEA"/>
<path d="M57.6205 52.6367C57.072 52.7783 56.742 53.3369 56.8835 53.8854C56.954 54.1588 56.9898 54.4419 56.9898 54.7271C56.9898 56.5792 55.4832 58.0857 53.6311 58.0857C51.7795 58.0857 50.2729 56.5792 50.2729 54.7271C50.2729 52.8755 51.7795 51.3689 53.6311 51.3689C53.9163 51.3689 54.1993 51.4041 54.4717 51.4746C55.0202 51.6156 55.5793 51.2856 55.7203 50.7371C55.8619 50.1892 55.5318 49.63 54.9833 49.4885C54.5438 49.3753 54.0888 49.3181 53.6311 49.3181C50.6484 49.3181 48.2222 51.7443 48.2222 54.7271C48.2222 57.7098 50.6484 60.1365 53.6311 60.1365C56.6138 60.1365 59.0406 57.7098 59.0406 54.7271C59.0406 54.2694 58.9829 53.8138 58.8697 53.3737C58.7281 52.8253 58.1685 52.4958 57.6205 52.6367Z" fill="#22BFEA"/>
<path d="M44.8635 15.202H55.8235C56.3896 15.202 56.8488 14.7432 56.8488 14.1766V5.40894C56.8488 4.84283 56.3896 4.38354 55.8235 4.38354H53.6317C53.0656 4.38354 52.6063 4.84283 52.6063 5.40894C52.6063 5.97557 53.0656 6.43433 53.6317 6.43433H54.7981V13.1512H45.8889V6.43433H49.2476C49.8137 6.43433 50.273 5.97557 50.273 5.40894C50.273 4.84283 49.8137 4.38354 49.2476 4.38354H44.8635C44.2974 4.38354 43.8381 4.84283 43.8381 5.40894V14.1766C43.8381 14.7432 44.2974 15.202 44.8635 15.202Z" fill="#22BFEA"/>
</g>
<defs>
<clipPath id="clip0">
<rect width="70" height="70" fill="white"/>
</clipPath>
</defs>
</svg>
