<svg width="70" height="70" viewBox="0 0 70 70" fill="none" xmlns="http://www.w3.org/2000/svg">
<path d="M69.3659 32.931C68.982 32.7719 68.5401 32.8598 68.2462 33.1536L65.169 36.2307V15.3085C65.169 14.7409 64.709 14.281 64.1416 14.281H56.2473L59.1129 11.4154C59.1133 11.415 59.1138 11.4144 59.1142 11.414L61.8753 8.65284C62.4669 8.06126 62.7927 7.2743 62.7927 6.43758C62.7927 5.60086 62.4669 4.81418 61.8753 4.22232L58.6824 1.02938C58.0908 0.437801 57.3039 0.112 56.4671 0.112C55.6304 0.112 54.8436 0.437801 54.2519 1.02938L51.4893 3.79193L48.1512 7.13006L41.0004 14.2809H9.10822V4.1165C9.10822 3.54898 8.64816 3.08906 8.08078 3.08906C3.62511 3.08933 0 6.71416 0 11.1701V54.8089C0 54.8848 0.00875002 54.9586 0.024336 55.0297C0.16625 56.9204 0.98424 58.6771 2.35129 60.0107C3.81255 61.4358 5.74152 62.2207 7.783 62.2207H39.1789L33.2659 68.1337C32.9721 68.4276 32.8842 68.8694 33.0432 69.2534C33.2022 69.6373 33.577 69.8877 33.9925 69.8877H68.9727C69.5401 69.8877 70.0001 69.4277 70.0001 68.8602V33.8802C70.0001 33.4647 69.7497 33.09 69.3659 32.931ZM55.7052 2.48257C56.1252 2.0623 56.8095 2.0623 57.2295 2.48257L60.4226 5.67564C60.8428 6.09578 60.8428 6.77979 60.4226 7.20006L58.3867 9.23608L53.6691 4.51859L55.7052 2.48257ZM52.216 5.97164L56.9335 10.689L55.0483 12.5742L50.3311 7.85686L52.216 5.97164ZM67.9455 45.4251H66.0499C65.4824 45.4251 65.0225 45.885 65.0225 46.4525C65.0225 47.02 65.4824 47.48 66.0499 47.48H67.9455V50.5761H66.0499C65.4824 50.5761 65.0225 51.036 65.0225 51.6035C65.0225 52.1711 65.4824 52.631 66.0499 52.631H67.9455V55.727H66.0499C65.4824 55.727 65.0225 56.1869 65.0225 56.7544C65.0225 57.3219 65.4824 57.7819 66.0499 57.7819H67.9455V60.878H66.0499C65.4824 60.878 65.0225 61.3381 65.0225 61.9055C65.0225 62.473 65.4824 62.9329 66.0499 62.9329H67.9455V67.8332H36.4728L46.8509 57.4552C47.2521 57.0538 47.2521 56.4035 46.8509 56.0022C46.8048 55.9561 46.7553 55.9162 46.7035 55.8807C46.3035 55.6067 45.753 55.647 45.3977 56.0022L41.2338 60.1661H7.78314C4.66704 60.1661 2.15852 57.7333 2.05981 54.6228C2.06569 54.4276 2.08086 54.234 2.1052 54.0426C2.10534 54.0415 2.10547 54.0404 2.10561 54.0393C2.11709 53.9484 2.1309 53.8579 2.14663 53.7679C2.1484 53.7577 2.15032 53.7474 2.15209 53.7372C2.16645 53.6569 2.18258 53.5771 2.20022 53.4975C2.20514 53.4754 2.21034 53.4532 2.21553 53.4312C2.23112 53.3639 2.24793 53.2971 2.26598 53.2305C2.27583 53.1944 2.28608 53.1587 2.29661 53.1228C2.31165 53.0705 2.32723 53.0184 2.34377 52.9669C2.36032 52.9154 2.37795 52.8644 2.39586 52.8134C2.40831 52.7777 2.42061 52.742 2.43401 52.7066C2.45903 52.6393 2.48555 52.5727 2.5129 52.5067C2.52069 52.4877 2.52835 52.4684 2.53641 52.4494C2.57155 52.3674 2.60805 52.2863 2.64661 52.2062C2.64825 52.2028 2.64975 52.1994 2.65139 52.1959C3.45503 50.5329 5.00064 49.293 6.8555 48.9083C6.8607 48.9072 6.86589 48.9059 6.87109 48.9048C6.95613 48.8875 7.04199 48.8726 7.12839 48.8588C7.14275 48.8564 7.1571 48.8536 7.17173 48.8514C7.2498 48.8395 7.32869 48.8302 7.40757 48.8213C7.42972 48.8188 7.45173 48.8154 7.47402 48.8132C7.55017 48.8056 7.62701 48.8005 7.70384 48.7957C7.72818 48.7942 7.75252 48.7916 7.77685 48.7904C7.87748 48.7853 7.97892 48.7827 8.08078 48.7827C8.64816 48.7827 9.10822 48.3228 9.10822 47.7553V40.3056C9.10822 39.7381 8.64816 39.2782 8.08078 39.2782C7.51339 39.2782 7.05333 39.7381 7.05333 40.3056V46.7925C5.31837 47.012 3.70796 47.7858 2.43811 49.0258C2.30454 49.1563 2.17793 49.2919 2.05461 49.4297V11.1701C2.05461 8.1977 4.21833 5.72076 7.0532 5.23158V15.3085V36.196V36.1961C7.0532 36.7635 7.51326 37.2236 8.08064 37.2236C8.64803 37.2236 9.10809 36.7635 9.10809 36.1961V36.196V16.3359H38.9456L33.2658 22.0158C32.8645 22.4172 32.8645 23.0675 33.2658 23.4688C33.6671 23.8699 34.3176 23.8699 34.7187 23.4688L42.1525 16.035C42.1528 16.0347 42.1529 16.0344 42.1532 16.0343L48.8777 9.30977L53.595 14.0273L53.0415 14.5807C53.0411 14.5811 53.0406 14.5815 53.0401 14.5819L32.3234 35.299L27.606 30.5816L31.6896 26.4981C32.0908 26.0967 32.0908 25.4463 31.6896 25.045C31.2883 24.6439 30.6378 24.6439 30.2366 25.045L25.4265 29.8551C25.4008 29.8808 25.3767 29.908 25.3541 29.9359C25.3466 29.9452 25.3399 29.9552 25.3328 29.9649C25.3183 29.9842 25.3041 30.0036 25.2908 30.0238C25.2833 30.0356 25.2765 30.0476 25.2694 30.0598C25.258 30.0789 25.2471 30.0983 25.2371 30.1181C25.2305 30.131 25.2247 30.144 25.2186 30.1574C25.2095 30.1775 25.201 30.198 25.1932 30.2185C25.1905 30.2257 25.1869 30.2326 25.1843 30.2398L23.1826 35.9102L21.8179 39.7765C21.7999 39.8279 21.7869 39.8801 21.7772 39.9328H18.3603C17.7929 39.9328 17.3328 40.3927 17.3328 40.9602C17.3328 41.5278 17.7929 41.9877 18.3603 41.9877H46.8134C47.3809 41.9877 47.8409 41.5278 47.8409 40.9602C47.8409 40.3927 47.3809 39.9328 46.8134 39.9328H26.3995L32.6653 37.7209C32.6705 37.719 32.6754 37.7164 32.6806 37.7145C32.705 37.7055 32.7289 37.6954 32.7525 37.6846C32.762 37.6802 32.7714 37.6761 32.7806 37.6716C32.8052 37.6593 32.8294 37.6458 32.8532 37.6313C32.8608 37.6266 32.8688 37.6224 32.8763 37.6176C32.901 37.6017 32.9251 37.5844 32.9487 37.566C32.9546 37.5615 32.9608 37.5576 32.9665 37.5529C32.9951 37.53 33.0231 37.5052 33.0496 37.4787L54.1924 16.336H63.114V38.2857L48.4173 52.9826C48.016 53.384 48.016 54.0344 48.4173 54.4357C48.4423 54.4607 48.4684 54.4842 48.4953 54.5062C48.6837 54.6598 48.9138 54.7366 49.1438 54.7366C49.3738 54.7366 49.604 54.6598 49.7923 54.5062C49.8192 54.4843 49.8453 54.4607 49.8703 54.4357C49.8707 54.4353 49.8703 54.4357 49.8707 54.4353L67.9455 36.3603V45.4251ZM30.4442 36.3256L27.5012 37.3645L25.5403 35.4037L26.5793 32.4607L30.4442 36.3256Z" fill="#007FFF"/>
</svg>
