<svg width="70" height="70" viewBox="0 0 70 70" fill="none" xmlns="http://www.w3.org/2000/svg">
<g clip-path="url(#clip0)">
<path d="M21.555 14.0294C20.9498 14.0294 20.459 14.52 20.459 15.1254C20.459 16.455 19.3772 17.5367 18.0477 17.5367C16.7181 17.5367 15.6363 16.455 15.6363 15.1254C15.6363 13.7958 16.7181 12.7141 18.0477 12.7141C18.6529 12.7141 19.1437 12.2234 19.1437 11.618C19.1437 11.0127 18.653 10.522 18.0477 10.522C15.5093 10.522 13.4443 12.5871 13.4443 15.1253C13.4443 17.6635 15.5095 19.7286 18.0477 19.7286C20.5858 19.7286 22.651 17.6635 22.651 15.1253C22.6511 14.52 22.1603 14.0294 21.555 14.0294Z" fill="#22BFEA"/>
<path d="M21.555 26.8893C20.9498 26.8893 20.459 27.38 20.459 27.9854C20.459 29.315 19.3772 30.3967 18.0477 30.3967C16.7181 30.3967 15.6363 29.315 15.6363 27.9854C15.6363 26.6558 16.7181 25.5741 18.0477 25.5741C18.6529 25.5741 19.1437 25.0834 19.1437 24.478C19.1437 23.8726 18.653 23.382 18.0477 23.382C15.5093 23.382 13.4443 25.4471 13.4443 27.9853C13.4443 30.5235 15.5095 32.5886 18.0477 32.5886C20.5858 32.5886 22.651 30.5235 22.651 27.9853C22.6511 27.3802 22.1603 26.8893 21.555 26.8893Z" fill="#22BFEA"/>
<path d="M34.4155 29.2274H26.2318C25.6266 29.2274 25.1357 29.7181 25.1357 30.3235C25.1357 30.9289 25.6264 31.4196 26.2318 31.4196H34.4155C35.0208 31.4196 35.5116 30.9289 35.5116 30.3235C35.5116 29.7181 35.0209 29.2274 34.4155 29.2274Z" fill="#22BFEA"/>
<path d="M34.4155 24.551H26.2318C25.6266 24.551 25.1357 25.0417 25.1357 25.6471C25.1357 26.2525 25.6264 26.7432 26.2318 26.7432H34.4155C35.0208 26.7432 35.5116 26.2525 35.5116 25.6471C35.5116 25.0417 35.0209 24.551 34.4155 24.551Z" fill="#22BFEA"/>
<path d="M32.0774 42.0876H26.2318C25.6266 42.0876 25.1357 42.5783 25.1357 43.1837C25.1357 43.7891 25.6264 44.2798 26.2318 44.2798H32.0774C32.6826 44.2798 33.1734 43.7891 33.1734 43.1837C33.1734 42.5783 32.6826 42.0876 32.0774 42.0876Z" fill="#22BFEA"/>
<path d="M34.4155 37.4113H26.2318C25.6266 37.4113 25.1357 37.902 25.1357 38.5074C25.1357 39.1128 25.6264 39.6035 26.2318 39.6035H34.4155C35.0208 39.6035 35.5116 39.1128 35.5116 38.5074C35.5116 37.902 35.0209 37.4113 34.4155 37.4113Z" fill="#22BFEA"/>
<path d="M44.9375 16.3674H26.2318C25.6266 16.3674 25.1357 16.8581 25.1357 17.4635C25.1357 18.0689 25.6264 18.5596 26.2318 18.5596H44.9374C45.5427 18.5596 46.0335 18.0689 46.0335 17.4635C46.0335 16.8581 45.5428 16.3674 44.9375 16.3674Z" fill="#22BFEA"/>
<path d="M40.2611 11.6908H26.2318C25.6266 11.6908 25.1357 12.1815 25.1357 12.7869C25.1357 13.3923 25.6264 13.8829 26.2318 13.8829H40.2611C40.8663 13.8829 41.3572 13.3923 41.3572 12.7869C41.3572 12.1815 40.8665 11.6908 40.2611 11.6908Z" fill="#22BFEA"/>
<path d="M21.555 39.7496C20.9498 39.7496 20.459 40.2403 20.459 40.8457C20.459 42.1752 19.3772 43.257 18.0477 43.257C16.7181 43.257 15.6363 42.1752 15.6363 40.8457C15.6363 39.5161 16.7181 38.4343 18.0477 38.4343C18.6529 38.4343 19.1437 37.9437 19.1437 37.3383C19.1437 36.7329 18.653 36.2422 18.0477 36.2422C15.5093 36.2422 13.4443 38.3073 13.4443 40.8455C13.4443 43.3837 15.5095 45.4488 18.0477 45.4488C20.5858 45.4488 22.651 43.3837 22.651 40.8455C22.6511 40.2403 22.1603 39.7496 21.555 39.7496Z" fill="#22BFEA"/>
<path d="M49.6139 0H9.86441C7.97086 0 6.43018 1.54055 6.43018 3.43424V52.5365C6.43018 54.4302 7.97072 55.9707 9.86441 55.9707H29.7392C30.3445 55.9707 30.8353 55.4801 30.8353 54.8747C30.8353 54.2694 30.3446 53.7786 29.7392 53.7786H9.86441C9.17945 53.7786 8.62219 53.2213 8.62219 52.5364V3.43424C8.62219 2.74928 9.17945 2.19201 9.86441 2.19201H49.6139C50.2988 2.19201 50.8561 2.74928 50.8561 3.43424V39.6766C50.8561 40.2819 51.3468 40.7727 51.9522 40.7727C52.5574 40.7727 53.0483 40.282 53.0483 39.6766V3.43424C53.0481 1.54055 51.5076 0 49.6139 0Z" fill="#22BFEA"/>
<path d="M59.9621 44.4464C58.9434 44.3448 57.9253 44.6336 57.1195 45.2454C56.4776 44.1683 55.383 43.4042 54.1166 43.2773C53.0976 43.1759 52.0796 43.4646 51.2739 44.0763C50.632 42.9992 49.5375 42.2351 48.271 42.1082C47.4931 42.0306 46.7163 42.1804 46.0336 42.5278V28.5699C46.0336 27.4367 45.5515 26.3503 44.7106 25.5895C43.8705 24.8293 42.7383 24.4582 41.6042 24.5717C39.5809 24.7743 37.9961 26.6038 37.9961 28.7367V42.7299L34.7741 45.9518C33.062 47.6639 32.3709 50.0931 32.9256 52.4502L35.3716 62.8459C36.3627 67.0583 40.0772 70.0002 44.4046 70.0002H54.2903C59.4072 70.0002 63.5701 65.8374 63.5701 60.7204V48.6117C63.5703 46.4784 61.9854 44.649 59.9621 44.4464ZM61.3781 60.7202C61.3781 64.6283 58.1986 67.8078 54.2905 67.8078H44.4048C41.0996 67.8078 38.2624 65.5608 37.5054 62.3434L35.0593 51.9477C34.6798 50.3351 35.1527 48.6729 36.3241 47.5015L37.9961 45.8296V49.6137C37.9961 50.2189 38.4867 50.7098 39.0921 50.7098C39.6975 50.7098 40.1882 50.2191 40.1882 49.6137V28.7366C40.1882 27.716 40.9061 26.8445 41.8228 26.7529C42.3493 26.7 42.8529 26.8644 43.24 27.2149C43.6224 27.5609 43.8417 28.0549 43.8417 28.5701V47.8603C43.8417 48.4655 44.3324 48.9563 44.9378 48.9563C45.5432 48.9563 46.0339 48.4656 46.0339 47.8603V46.1066C46.0339 45.5914 46.2531 45.0974 46.6356 44.7514C47.0231 44.4009 47.5263 44.2364 48.0528 44.2894C48.9694 44.3812 49.6874 45.2526 49.6874 46.2732V49.0291C49.6874 49.6343 50.1781 50.1251 50.7835 50.1251C51.3888 50.1251 51.8796 49.6345 51.8796 49.0291V47.2754C51.8796 46.7602 52.0987 46.2663 52.4813 45.9202C52.8687 45.5697 53.3721 45.4053 53.8985 45.4582C54.8151 45.55 55.5331 46.4214 55.5331 47.442V50.198C55.5331 50.8033 56.0238 51.2941 56.6292 51.2941C57.2344 51.2941 57.7253 50.8034 57.7253 50.198V48.4443C57.7253 47.9292 57.9444 47.4352 58.327 47.0892C58.7144 46.7388 59.2174 46.5741 59.7442 46.6273C60.6608 46.7189 61.3788 47.5904 61.3788 48.611V60.7202H61.3781Z" fill="#22BFEA"/>
</g>
<defs>
<clipPath id="clip0">
<rect width="70" height="70" fill="white"/>
</clipPath>
</defs>
</svg>
