<svg width="99" height="99" viewBox="0 0 99 99" fill="none" xmlns="http://www.w3.org/2000/svg">
											<circle cx="49.065" cy="49.065" r="46.565" stroke="black" stroke-width="5" />
											<path d="M63.1679 53.25C65.0204 53.25 66.6497 54.1928 67.6092 55.625H53.0623C51.7252 55.625 50.4925 56.0667 49.4998 56.8125H35.8507C35.6166 56.8122 35.3849 56.858 35.1686 56.9474C34.9524 57.0368 34.7559 57.168 34.5904 57.3335C34.425 57.499 34.2938 57.6954 34.2044 57.9117C34.1149 58.1279 34.0691 58.3597 34.0694 58.5937V59.9641C34.0694 61.2347 34.5254 62.465 35.3519 63.4316C37.9525 66.4787 41.8452 68.2196 47.1248 68.6091V71.0625C47.1248 71.4448 47.1604 71.8225 47.2317 72.1835C40.8738 71.7821 35.9742 69.6517 32.642 65.7472C31.2654 64.1348 30.5092 62.0842 30.5093 59.9641V58.5913C30.5093 57.1747 31.072 55.8161 32.0737 54.8144C33.0754 53.8127 34.434 53.25 35.8507 53.25H63.1679ZM49.4998 24.7618C51.0592 24.7618 52.6034 25.069 54.0441 25.6658C55.4849 26.2625 56.794 27.1373 57.8967 28.2399C58.9994 29.3426 59.8741 30.6517 60.4708 32.0925C61.0676 33.5332 61.3748 35.0774 61.3748 36.6368C61.3748 38.1963 61.0676 39.7405 60.4708 41.1812C59.8741 42.6219 58.9994 43.931 57.8967 45.0337C56.794 46.1364 55.4849 47.0111 54.0441 47.6079C52.6034 48.2047 51.0592 48.5118 49.4998 48.5118C46.3503 48.5118 43.3299 47.2607 41.1029 45.0337C38.8759 42.8067 37.6248 39.7863 37.6248 36.6368C37.6248 33.4874 38.8759 30.4669 41.1029 28.2399C43.3299 26.013 46.3503 24.7618 49.4998 24.7618ZM49.4998 28.3243C48.4082 28.3243 47.3272 28.5393 46.3187 28.9571C45.3102 29.3748 44.3938 29.9871 43.622 30.759C42.8501 31.5309 42.2378 32.4473 41.82 33.4558C41.4023 34.4643 41.1873 35.5452 41.1873 36.6368C41.1873 37.7285 41.4023 38.8094 41.82 39.8179C42.2378 40.8264 42.8501 41.7428 43.622 42.5147C44.3938 43.2866 45.3102 43.8988 46.3187 44.3166C47.3272 44.7343 48.4082 44.9493 49.4998 44.9493C51.7044 44.9493 53.8187 44.0736 55.3776 42.5147C56.9365 40.9558 57.8123 38.8415 57.8123 36.6368C57.8123 34.4322 56.9365 32.3179 55.3776 30.759C53.8187 29.2001 51.7044 28.3243 49.4998 28.3243ZM49.4998 61.5625C49.4998 60.6176 49.8751 59.7115 50.5432 59.0434C51.2113 58.3753 52.1174 58 53.0623 58H72.0623C73.0071 58 73.9132 58.3753 74.5813 59.0434C75.2494 59.7115 75.6248 60.6176 75.6248 61.5625V71.0625C75.6248 72.0073 75.2494 72.9134 74.5813 73.5815C73.9132 74.2496 73.0071 74.625 72.0623 74.625H53.0623C52.1174 74.625 51.2113 74.2496 50.5432 73.5815C49.8751 72.9134 49.4998 72.0073 49.4998 71.0625V61.5625ZM73.2498 62.75C72.6199 62.75 72.0158 62.4997 71.5704 62.0543C71.125 61.6089 70.8748 61.0049 70.8748 60.375H68.4998C68.4998 61.6347 69.0002 62.8429 69.891 63.7337C70.7818 64.6245 71.99 65.125 73.2498 65.125V62.75ZM73.2498 67.5C71.99 67.5 70.7818 68.0004 69.891 68.8912C69.0002 69.782 68.4998 70.9902 68.4998 72.25H70.8748C70.8748 71.6201 71.125 71.016 71.5704 70.5706C72.0158 70.1252 72.6199 69.875 73.2498 69.875V67.5ZM54.2498 60.375C54.2498 61.0049 53.9996 61.6089 53.5542 62.0543C53.1088 62.4997 52.5047 62.75 51.8748 62.75V65.125C53.1346 65.125 54.3427 64.6245 55.2335 63.7337C56.1243 62.8429 56.6248 61.6347 56.6248 60.375H54.2498ZM56.6248 72.25C56.6248 70.9902 56.1243 69.782 55.2335 68.8912C54.3427 68.0004 53.1346 67.5 51.8748 67.5V69.875C52.5047 69.875 53.1088 70.1252 53.5542 70.5706C53.9996 71.016 54.2498 71.6201 54.2498 72.25H56.6248ZM66.7185 66.3125C66.7185 65.2102 66.2806 64.153 65.5012 63.3736C64.7217 62.5941 63.6646 62.1562 62.5623 62.1562C61.46 62.1562 60.4028 62.5941 59.6234 63.3736C58.8439 64.153 58.406 65.2102 58.406 66.3125C58.406 67.4148 58.8439 68.4719 59.6234 69.2514C60.4028 70.0308 61.46 70.4687 62.5623 70.4687C63.6646 70.4687 64.7217 70.0308 65.5012 69.2514C66.2806 68.4719 66.7185 67.4148 66.7185 66.3125Z" fill="black" />
										</svg>