<svg width="99" height="99" viewBox="0 0 99 99" fill="none" xmlns="http://www.w3.org/2000/svg">
											<circle cx="49.065" cy="49.065" r="46.565" stroke="black" stroke-width="5" />
											<path d="M22.3333 35.6667C22.3333 34.2522 22.8952 32.8957 23.8953 31.8955C24.8955 30.8953 26.2521 30.3334 27.6666 30.3334H70.3333C71.7477 30.3334 73.1043 30.8953 74.1045 31.8955C75.1047 32.8957 75.6666 34.2522 75.6666 35.6667V62.3334C75.6666 63.7479 75.1047 65.1044 74.1045 66.1046C73.1043 67.1048 71.7477 67.6667 70.3333 67.6667H27.6666C26.2521 67.6667 24.8955 67.1048 23.8953 66.1046C22.8952 65.1044 22.3333 63.7479 22.3333 62.3334V35.6667Z" stroke="black" stroke-width="4" stroke-linecap="round" stroke-linejoin="round" />
											<path d="M49 57C53.4183 57 57 53.4183 57 49C57 44.5817 53.4183 41 49 41C44.5817 41 41 44.5817 41 49C41 53.4183 44.5817 57 49 57Z" stroke="black" stroke-width="4" stroke-linecap="round" stroke-linejoin="round" />
											<path d="M22.3333 41C25.1622 41 27.8753 39.8762 29.8757 37.8758C31.8761 35.8755 32.9999 33.1624 32.9999 30.3334" stroke="black" stroke-width="4" stroke-linecap="round" stroke-linejoin="round" />
											<path d="M65 67.6667C65 64.8377 66.1238 62.1246 68.1242 60.1242C70.1246 58.1238 72.8377 57 75.6667 57" stroke="black" stroke-width="4" stroke-linecap="round" stroke-linejoin="round" />
										</svg>