<svg width="99" height="99" viewBox="0 0 99 99" fill="none" xmlns="http://www.w3.org/2000/svg">
	<circle cx="49.065" cy="49.065" r="46.565" stroke="black" stroke-width="5" />
	<path d="M57.1909 25.0011C55.9025 25.0104 54.6234 25.0732 53.2723 25.4359C51.8005 25.8362 50.4039 26.4748 49.1379 27.3266C47.3596 26.2801 45.6371 25.4197 43.9866 25.2173C41.9368 24.9639 40.0332 25.1011 37.8209 25.1476C35.1977 25.2011 33.4868 26.5429 30.7104 27.6173C27.9362 28.6871 24.3636 29.7242 19.3214 29.7242H17V52.1075L18.307 52.761L22.5854 54.8703L37.8209 71.8746L37.8929 71.9467C39.6339 73.6723 41.9832 74.1002 44.0586 73.9816C46.1362 73.8653 48.0863 73.256 49.6439 72.3118C53.0727 70.2398 62.4118 63.7352 62.4118 63.7352L62.63 63.5887L62.7762 63.4445C63.8812 62.3446 64.4361 61.0027 64.8075 59.5935L73.7287 55.0866L80.4029 52.8354L82 52.3238V29.7242H79.6786C75.7763 29.751 71.9068 29.0098 68.2896 27.5429C65.5132 26.4569 63.8279 25.129 61.1768 25.0732C59.7607 25.0453 58.4746 24.9918 57.1886 25.0011H57.1909ZM57.2605 29.6521C58.3052 29.6428 59.5123 29.6987 61.0352 29.7242C61.2789 29.7335 63.5098 30.687 66.6205 31.9056C69.2507 32.9405 72.9046 33.859 77.3571 34.1567V48.982L71.9877 50.8006H71.8438L71.6975 50.8704L64.6636 54.4331C64.2902 53.3539 63.6973 52.3641 62.9225 51.5262L62.7762 51.3076L52.9102 39.1729L51.4593 37.3543L49.6439 38.8078L43.4062 43.8961C41.3123 45.3495 39.6154 44.9309 37.8929 44.1147C37.3937 43.8775 37.4216 43.8054 37.0223 43.5333L47.615 34.7381L47.7589 34.5939C50.9045 31.4684 52.8382 30.387 54.505 29.9428C55.3407 29.7149 56.2205 29.6615 57.2629 29.6521H57.2605ZM41.0871 29.7242C41.8617 29.695 42.6373 29.7191 43.4086 29.7963C44.0168 29.8684 44.7062 30.387 45.2959 30.5963C45.0591 30.8149 44.8873 30.9405 44.6412 31.1777L44.4973 31.3242L31.8014 41.8589L29.8421 43.4589L31.5832 45.2751C31.5832 45.2751 33.2616 47.0937 35.8639 48.3285C38.4663 49.5634 42.4846 50.2634 46.0921 47.7472L46.2384 47.6007L50.735 43.8961L59.2964 54.4331L59.3684 54.5796L59.4404 54.6494C60.9725 56.1679 60.9377 58.5563 59.4404 60.1027C59.4218 60.119 59.4589 60.1562 59.4404 60.1725C59.4218 60.1841 59.1154 60.3655 59.0782 60.3934L56.0302 56.2493L52.2579 59.0121L55.2339 63.0073C54.0268 63.8259 53.4836 64.2538 52.1859 65.1166L49.0682 60.9004L45.2936 63.6631L48.2696 67.6584C48.005 67.8212 47.4618 68.1863 47.2529 68.3142C46.5193 68.7584 45.1032 69.2584 43.8427 69.3305C42.6564 69.3956 41.7488 69.1212 41.3054 68.7491L41.2334 68.677L25.7077 51.4541L25.4175 51.089L21.6429 49.2006V34.1567C26.0768 33.866 29.7586 32.9846 32.3795 31.9777C35.4809 30.787 37.6955 29.8056 37.9648 29.7963L41.0848 29.7242H41.0871Z" fill="black" />
</svg>