<svg width="19" height="18" viewBox="0 0 19 18" fill="none" xmlns="http://www.w3.org/2000/svg">
<path d="M13.9815 5.24995C14.6076 5.24995 15.1152 4.74628 15.1152 4.12497C15.1152 3.50367 14.6076 3 13.9815 3C13.3553 3 12.8478 3.50367 12.8478 4.12497C12.8478 4.74628 13.3553 5.24995 13.9815 5.24995Z" fill="white"/>
<path d="M13.6043 0H4.53477C2.04087 0 0 2.02517 0 4.49989V13.5001C0 15.9742 2.04087 18 4.53477 18H13.6043C16.0982 18 18.1391 15.9742 18.1391 13.5001V4.49989C18.1391 2.02517 16.0982 0 13.6043 0ZM16.6274 13.5001C16.6274 15.1538 15.2717 16.5 13.6043 16.5H4.53477C2.86801 16.5 1.51166 15.1538 1.51166 13.5001V4.49989C1.51166 2.84573 2.86801 1.50004 4.53477 1.50004H13.6043C15.2717 1.50004 16.6274 2.84573 16.6274 4.49989V13.5001Z" fill="white"/>
<path d="M9.07273 4.5C6.56773 4.5 4.53796 6.51437 4.53796 8.99988C4.53796 11.4845 6.56773 13.5002 9.07273 13.5002C11.5771 13.5002 13.6075 11.4845 13.6075 8.99988C13.6075 6.51437 11.5771 4.5 9.07273 4.5ZM9.07273 12.0002C7.40326 12.0002 6.04963 10.657 6.04963 8.99988C6.04963 7.3428 7.40326 6.00004 9.07273 6.00004C10.7422 6.00004 12.0958 7.3428 12.0958 8.99988C12.0958 10.657 10.7422 12.0002 9.07273 12.0002Z" fill="white"/>
</svg>
