<svg width="172" height="43" viewBox="0 0 172 43" fill="none" xmlns="http://www.w3.org/2000/svg">
<path fill-rule="evenodd" clip-rule="evenodd" d="M32.0865 37.706C27.8706 36.8882 24.3 29.5709 28.903 23.5018L32.6887 19.9292C32.7318 19.1975 32.6027 19.8431 33.0329 19.1114L33.205 18.8531C33.4631 18.4227 33.5921 18.2505 33.7642 17.9062C34.5386 16.3566 34.1514 16.1845 34.7537 16.0123C34.9257 13.0854 35.7001 10.675 34.4095 8.04934C34.1514 6.84413 33.6352 6.45674 33.4201 5.38067C32.9899 5.29458 33.0759 5.16545 32.5167 4.43372C31.4412 3.0133 30.3227 2.62591 29.7634 1.85114C27.8276 1.54984 27.6985 0.60289 24.5581 0.559847C22.192 0.473761 20.6003 0.559847 18.9225 1.72201C17.5029 2.712 16.8576 2.92721 15.6101 4.95024C12.6847 9.8141 15.1368 15.8401 19.7829 16.9162C25.9347 18.3797 28.6449 12.3967 26.1498 9.2115C25.0743 7.87716 21.8479 7.83412 21.8909 9.72801C21.8909 11.1484 23.3966 10.2015 23.3105 11.665C23.2245 13.3867 20.0411 13.1715 19.1376 11.6219C16.4704 7.10239 22.6652 1.67897 28.3438 6.1124C30.7529 7.96325 31.054 10.3306 30.8819 13.1715C30.7959 14.2906 30.4087 14.7641 30.2366 15.8832C30.1506 15.9262 30.1506 15.9262 29.9785 16.1845C29.9355 16.2275 29.7634 16.4858 29.7204 16.5288L28.2147 18.2936C27.5264 18.9823 26.537 19.6279 25.5905 20.0583C18.6644 23.1574 15.9112 16.744 7.26431 20.9192C6.48996 21.3066 6.44694 21.3496 5.93071 21.7801C4.72617 22.7701 5.4575 22.4688 4.51107 22.7701C2.66124 25.3957 0.897449 27.4187 0.940468 31.8091C0.983488 34.6499 2.05897 36.8021 3.69371 38.696C3.99484 39.0403 4.1239 39.1264 4.46805 39.4277C5.19938 40.1164 4.94127 39.6429 5.07032 40.3747C6.83412 40.2455 6.61902 41.666 10.1466 41.666C14.4485 41.666 13.3731 41.0633 15.6531 40.5038C15.6961 40.2886 15.1799 40.1594 16.0403 40.3747C16.3844 39.5999 16.6425 39.729 17.2018 39.0403C17.5459 38.6099 17.8471 38.1364 18.1052 37.706C22.2781 30.0443 13.201 24.707 9.58735 29.2696C8.51187 30.6469 8.03866 34.6069 12.0825 33.746L12.2115 31.6369C15.9112 31.2065 15.438 35.8551 12.9859 37.0173C10.4477 38.2225 7.73752 37.2756 6.31788 35.1664C4.68315 32.756 4.72617 30.1735 6.27487 27.6339C8.03866 24.707 9.80245 24.6209 11.6953 23.8461C14.9218 23.2435 17.8901 24.4487 19.6539 26.2135C20.9445 27.5048 23.1815 31.1204 22.9664 33.4017C23.6977 34.0043 23.1384 36.2425 27.1392 39.686C28.9891 41.2786 31.4412 42.4407 34.6246 42.699C40.3892 43.1294 45.7236 38.739 46.0247 32.8852C46.67 20.7901 30.7098 20.5318 30.6238 29.8291C30.6238 31.1634 31.3121 32.7991 32.1725 33.5739C33.5491 34.7791 34.4955 34.693 36.6465 34.6499C36.8186 34.1334 37.722 34.0043 38.1092 32.9713C38.5394 31.8521 38.1952 31.2495 37.636 30.6469C35.8291 30.4748 36.7756 31.4217 34.9257 31.0343C34.0223 27.8922 36.8616 26.9022 39.2277 27.8061C40.1311 28.1504 40.7764 28.8822 41.3356 29.6569C41.9379 30.5608 42.0669 31.8952 41.9379 33.0573C41.7228 34.5638 41.2066 35.2095 40.3462 36.1995C37.636 39.2555 33.0759 38.7821 32.0865 37.706ZM157.058 25.0944L156.972 29.2265C159.553 29.4417 161.575 28.4517 161.747 30.5178C161.79 30.9913 161.747 31.766 161.747 32.2826C161.747 34.693 161.618 41.1064 161.876 42.742C168.114 43.1725 166.909 44.1624 166.909 32.713C166.909 32.1104 166.909 31.5508 166.909 30.9482C166.909 27.8061 169.275 29.9152 171.555 29.1404C171.641 28.1504 172.028 25.4818 171.125 25.1805C170.049 24.7931 157.617 25.0083 157.058 25.0944ZM89.001 40.676V25.0083C87.4093 25.0083 84.8712 24.6209 83.6666 25.2235C83.3225 26.2565 83.3655 41.0203 83.6666 42.4838C83.7097 42.4838 83.7097 42.5268 83.7527 42.5268C84.0968 42.742 84.0108 42.699 84.2259 42.699C84.398 42.742 84.57 42.742 84.7421 42.7851C84.7851 42.8712 84.7851 42.8712 84.7851 42.7851C86.0757 42.9142 87.9686 42.742 88.872 42.699L89.001 40.676ZM107.413 42.5699L107.37 25.1374C106.166 24.8361 103.585 24.8792 102.466 25.1374L102.38 33.2295C101.176 33.0143 98.6374 25.6539 97.4328 25.0944C96.0992 24.9653 93.8622 24.75 92.7867 25.1805L92.5286 26.3426C92.3996 29.2696 92.4856 41.752 92.7437 42.8281C95.4539 42.4838 97.3038 43.689 97.5619 41.666C97.6909 40.5468 97.3038 35.5538 97.6909 34.5208C99.1106 34.9512 101.348 42.3977 103.154 42.742C103.929 42.8281 106.596 42.742 107.413 42.5699ZM123.89 33.3586C123.503 31.4647 126.127 26.8161 125.955 25.0083H120.964C120.491 25.9983 121.05 25.9552 120.233 26.2565C120.448 27.5909 119.416 30.3026 119.158 31.6369C118.856 32.9713 118.297 36.0704 117.738 36.716C117.265 36.0704 115.286 27.0744 114.684 25.0944C107.887 24.4057 109.521 25.3957 110.683 29.0543C111.328 31.0343 112.92 35.0804 113.049 36.8882C113.479 36.9312 113.221 36.759 113.35 37.3186C113.522 37.9212 113.393 37.7921 113.307 38.0934C113.651 38.3516 113.694 38.3086 113.995 39.2555L114.382 40.3316C114.813 41.5368 114.512 41.6659 115.329 42.699C120.018 42.742 120.276 43.2585 120.878 41.2786L122.255 37.0173C122.341 36.716 122.642 36.0704 122.728 35.7691C123.373 33.9612 123.158 33.2295 123.89 33.3586ZM139.592 29.0974L139.549 25.0083C137.699 24.8792 135.548 24.9653 133.655 24.9653C132.838 24.9653 128.149 24.75 128.192 25.2235C127.804 25.4818 127.761 24.9653 127.761 27.1604C127.804 30.3887 127.546 40.8481 127.891 42.3977L127.977 42.699C130.085 43.0433 137.398 43.0003 139.635 42.742C139.764 42.0533 139.807 41.2355 139.85 40.4607C139.85 40.1594 139.893 39.6429 139.807 39.3416C139.721 38.8682 139.85 38.5238 138.86 38.3947C138.086 38.2655 134.817 38.6099 133.225 38.2655C132.967 35.726 133.268 35.6399 134.731 35.5969C138.387 35.5108 139.162 36.1995 139.377 34.5638C139.506 33.4878 139.291 32.1104 139.291 32.0243C137.312 31.8091 135.333 31.5939 133.354 31.3356C132.278 30.69 132.795 29.0113 134.989 29.0543C136.408 29.1835 138.043 29.2265 139.592 29.0974ZM155.165 26.1274C153.487 24.75 143.808 23.2435 142.259 28.3657C141.442 31.0774 142.603 33.4017 144.754 34.6499C145.83 35.2956 146.819 35.5969 147.981 36.0273C149.357 36.5008 150.304 36.5008 150.002 38.3516C148.54 39.3847 146.045 38.6529 144.539 37.9212C143.98 37.6199 143.808 37.3616 143.033 37.2756C142.56 38.1364 141.872 39.9873 141.915 41.1925C143.421 42.0964 145.399 42.8712 147.55 42.9572C149.142 43.0003 150.863 42.8281 152.326 42.3116C153.272 41.9673 153.014 42.0964 153.487 41.4507C154.261 41.4507 155.079 39.9873 155.208 39.2555C156.197 33.5739 153.014 32.9282 148.669 31.3787C146.604 30.6469 146.561 28.5378 150.648 28.9683C152.067 29.0974 152.885 29.8722 154.132 29.8291C154.821 28.9252 154.95 27.2035 155.165 26.1274ZM147.851 13.2145L147.077 16.5288C149.744 18.0784 152.67 18.724 156.154 18.0353C162.048 16.9162 162.736 10.1154 155.724 7.18848C151.207 6.15544 151.852 3.57286 155.982 4.26155L158.176 4.86415C158.95 5.16545 158.434 4.64894 158.778 5.25154L159.553 5.16545C159.768 3.78808 160.155 3.09939 160.112 1.46375C158.907 0.430718 155.853 0.0863739 153.917 0.129417C145.141 0.387675 145.528 9.5128 152.713 11.2345C157.875 12.3106 154.864 15.5819 149.357 13.0423C148.411 12.6119 148.282 12.7841 147.722 13.1715L147.851 13.2145ZM129.955 17.9923C131.332 18.0784 133.784 18.3797 134.86 17.7771C135.591 17.0453 135.29 15.6249 135.892 14.8071L140.237 14.7641C140.624 15.5819 140.753 17.0884 141.054 17.8631C142.345 18.2505 144.625 18.0784 146.174 17.9923L141.27 1.63592C141.227 1.54984 141.097 1.03332 141.054 0.947235C140.925 0.559847 140.968 0.775063 140.925 0.430718L135.376 0.387675L135.032 1.72201L129.955 17.9923ZM136.925 10.8041L138.086 5.76805C138.817 10.0293 140.624 11.2345 136.925 10.8041ZM114.296 0.645933L114.339 17.9062C115.544 18.2075 118.168 18.3366 119.072 17.8201C119.545 17.3466 119.33 12.8702 119.33 12.2676C125.481 10.9332 117.867 18.8962 128.235 17.9923C128.321 16.744 126.686 12.0954 125.309 10.5889C125.438 9.25454 129.353 8.26455 127.589 3.35764C125.955 -1.03275 117.437 -0.128841 114.296 0.645933ZM119.373 4.17546C122.04 3.74503 122.986 4.60589 122.685 7.18848C122.513 7.92021 118.211 9.72801 119.373 4.17546ZM105.305 0.559847C105.219 1.50679 105.004 17.1314 105.391 17.734C105.779 18.3366 109.908 18.1214 110.726 17.9923C110.941 16.0553 111.027 1.8081 110.683 0.688976C109.435 0.129417 106.811 0.344632 105.305 0.559847ZM83.7527 0.387675C83.2364 2.02331 83.2795 16.2275 83.7097 17.9923C83.9678 17.9923 87.8395 18.1644 87.9686 17.8631C88.0116 17.7771 88.0976 17.8201 88.1406 17.7771C88.915 16.0984 87.7965 11.9663 88.4848 10.0293C89.4312 10.8902 89.4742 13.5158 90.5928 14.3767C91.4531 14.678 94.1634 14.8071 94.9377 14.2045C95.4109 13.8171 96.1422 11.4928 96.1422 10.9763C96.8736 10.4167 96.1422 10.718 97.0026 10.5458L96.9166 18.0784C98.4653 17.9492 100.358 18.3366 101.864 17.8631C102.079 16.3136 102.079 1.37766 101.778 0.559847C101.692 0.473761 97.2177 -0.301013 96.4434 0.818106L95.8411 0.861149L95.8841 1.63592L94.8517 4.47676C94.4215 5.85414 93.1739 8.99628 92.5716 9.98627C92.0124 9.16846 89.0871 1.54984 88.7429 0.344632L83.7527 0.387675ZM62.3721 2.53983C62.3721 11.2776 62.0709 39.6429 62.5872 41.9673L64.8672 42.0103L64.9962 37.0603C64.9532 25.0083 65.2113 12.3536 64.9532 0.430718C62.286 0.215503 62.3721 0.0863739 62.3721 2.53983Z" fill="#22BFEA"/>
</svg>
