<svg width="99" height="99" viewBox="0 0 99 99" fill="none" xmlns="http://www.w3.org/2000/svg">
											<circle cx="49.065" cy="49.065" r="46.565" stroke="#22BFEA" stroke-width="5" />
											<path d="M32.97 30.24C26.3916 30.24 21 35.6151 21 42.1758C21 44.718 21.8117 47.0806 23.186 49.0226L31.5097 63.4117C32.6753 64.9347 33.4505 64.6458 34.4201 63.3319L43.6005 47.7082C43.7858 47.3719 43.9311 47.0151 44.0582 46.6503C44.6408 45.2305 44.9403 43.7105 44.94 42.1758C44.94 35.6151 39.5501 30.24 32.97 30.24ZM32.97 35.8328C36.5131 35.8328 39.3312 38.6435 39.3312 42.1764C39.3312 45.7092 36.5131 48.5187 32.97 48.5187C29.4275 48.5187 26.6088 45.7086 26.6088 42.1764C26.6088 38.6435 29.4275 35.8328 32.97 35.8328Z" fill="#22BFEA" />
											<path fill-rule="evenodd" clip-rule="evenodd" d="M71.2792 33.325C69.9984 33.3535 68.7142 33.4076 67.4277 33.5028L67.626 36.656C68.8618 36.5665 70.0997 36.5089 71.3385 36.4833L71.2792 33.325ZM64.4534 33.7924C62.4755 34.038 60.4805 34.388 58.5083 34.9506L59.251 38.0064C61.0431 37.4956 62.9002 37.1656 64.7863 36.9313L64.4534 33.7924ZM55.5552 36.0085C54.9642 36.2694 54.3921 36.5708 53.8429 36.9108L53.8406 36.9137L53.8372 36.9148C53.0534 37.4084 52.2275 38.0349 51.5532 38.9452C51.0647 39.6046 50.6651 40.4386 50.5716 41.4247L53.4758 41.7467C53.4975 41.5153 53.616 41.2098 53.8292 40.9225H53.8303V40.9213C54.174 40.4562 54.6893 40.0339 55.3021 39.6474L55.3044 39.6463C55.7411 39.3767 56.1959 39.1375 56.6655 38.9303L55.5552 36.0085ZM54.06 43.1535L52.1773 45.5674C52.6236 45.9755 53.0916 46.289 53.5436 46.5512L53.5493 46.5541L53.555 46.5575C55.0553 47.4108 56.6022 47.8924 58.0364 48.3496L58.8606 45.3183C57.427 44.8612 56.0756 44.42 54.9173 43.7622C54.5856 43.5696 54.2949 43.3684 54.06 43.1535ZM61.661 46.171L60.8561 49.2074L61.2369 49.326L61.7043 49.4753C63.2513 49.9786 64.7333 50.5162 66.058 51.26L67.402 48.4556C65.8003 47.5556 64.1376 46.9673 62.5354 46.4464L62.5308 46.4452L62.0509 46.2919L61.661 46.171ZM70.1352 50.56L68.0701 52.7944C68.558 53.3228 68.9234 53.9584 69.1012 54.615L69.1023 54.6184L69.1035 54.6236C69.3155 55.3902 69.3161 56.292 69.1502 57.2028L72.0139 57.8139C72.2476 56.5279 72.2852 55.1161 71.901 53.7224C71.5665 52.4901 70.928 51.4196 70.1352 50.56ZM68.1504 59.1066C67.8349 59.4399 67.4861 59.7402 67.1096 60.0027H67.1085C66.0825 60.7243 64.8923 61.2681 63.6281 61.7355L64.5708 64.7245C65.9537 64.2133 67.3735 63.5863 68.7005 62.6526L68.7039 62.6497L68.7056 62.6486C69.2506 62.267 69.7547 61.8302 70.2098 61.345L68.1504 59.1066ZM60.9456 62.5774C59.1142 63.0698 57.2424 63.4449 55.3477 63.763L55.7946 66.886C57.7445 66.5582 59.7025 66.1666 61.6485 65.6434L60.9456 62.5774ZM52.4971 64.1939C50.5899 64.4544 48.6724 64.667 46.7492 64.8482L47.0012 67.9958C48.954 67.8122 50.9102 67.5962 52.8636 67.3289L52.4971 64.1939ZM43.8588 65.0962C41.9316 65.2489 39.9999 65.3732 38.0664 65.4781L38.2123 68.6336C40.1646 68.5282 42.1185 68.4022 44.0719 68.2472L43.8588 65.0962ZM35.1611 65.6206C34.0023 65.6747 32.8407 65.7192 31.6761 65.7602L31.7719 68.9186C32.9437 68.8783 34.1153 68.8316 35.2865 68.7784L35.1611 65.6206Z" fill="#22BFEA" />
										</svg>