<svg width="70" height="70" viewBox="0 0 70 70" fill="none" xmlns="http://www.w3.org/2000/svg">
<path d="M58.5116 11.151H55.0949C54.5848 11.151 54.2619 11.4741 54.2619 11.831H54.2617V22.8805C54.2617 23.3394 54.8057 23.5775 55.3667 23.5775C55.9107 23.5775 56.4716 23.3396 56.4716 22.8805V18.9367H58.3757C60.6195 18.9367 62.3705 17.8656 62.3705 15.0778V14.976C62.3705 12.188 60.6705 11.151 58.5116 11.151ZM60.1604 15.2479C60.1604 16.5738 59.4805 17.2028 58.3756 17.2028H56.4716V13.089H58.3756C59.4805 13.089 60.1604 13.718 60.1604 15.0439V15.2479Z" fill="#007FFF"/>
<path d="M40.0679 15.4706C36.8408 12.2435 32.5503 10.4663 27.9865 10.4663C23.4228 10.4663 19.1323 12.2435 15.9052 15.4706C15.5157 15.86 15.5157 16.4913 15.9052 16.8809C16.2945 17.2702 16.9259 17.2702 17.3153 16.8809C20.1657 14.0306 23.9554 12.4608 27.9864 12.4608C32.0174 12.4608 35.8072 14.0306 38.6575 16.8809C38.8524 17.0755 39.1076 17.1729 39.3627 17.1729C39.6179 17.1729 39.8731 17.0755 40.0679 16.8809C40.4573 16.4915 40.4573 15.86 40.0679 15.4706Z" fill="#007FFF"/>
<path d="M35.954 19.5847C31.5607 15.1913 24.4124 15.1913 20.0192 19.5847C19.6297 19.974 19.6297 20.6055 20.0192 20.9949C20.4086 21.3843 21.0401 21.3843 21.4294 20.9949C25.0451 17.3794 30.9281 17.3794 34.5437 20.9949C34.7384 21.1896 34.9935 21.2869 35.2488 21.2869C35.5039 21.2869 35.7592 21.1896 35.954 20.9949C36.3433 20.6055 36.3433 19.974 35.954 19.5847Z" fill="#007FFF"/>
<path d="M31.9049 23.6333C29.7442 21.4726 26.2285 21.4726 24.0678 23.6333C23.6783 24.0227 23.6783 24.6541 24.0678 25.0436C24.4571 25.4331 25.0886 25.433 25.478 25.0436C26.8612 23.6605 29.1116 23.6605 30.4948 25.0436C30.6894 25.2384 30.9447 25.3356 31.1998 25.3356C31.4549 25.3356 31.7102 25.2383 31.9049 25.0436C32.2944 24.6541 32.2944 24.0228 31.9049 23.6333Z" fill="#007FFF"/>
<path d="M49.0713 43.0552C48.6398 42.8177 48.2141 42.5576 47.8061 42.282L41.2101 37.8261C39.2083 36.4737 36.8731 35.7589 34.4573 35.7589H22.3508C19.1372 35.7589 16.1136 37.0081 13.8367 39.2763C12.6664 40.4423 11.3331 41.4177 9.87389 42.1754C9.01093 42.6235 8.47485 43.5055 8.47485 44.4772C8.47485 45.9081 9.63887 47.0721 11.0698 47.0721H15.1973C15.748 47.0721 16.1945 46.6255 16.1945 46.0748C16.1945 45.5241 15.748 45.0776 15.1973 45.0776H11.0698C10.7386 45.0776 10.4692 44.8082 10.4692 44.477C10.4692 44.2527 10.5932 44.049 10.7929 43.9453C12.4323 43.0941 13.93 41.9985 15.2442 40.6891C17.1446 38.7958 19.6684 37.7532 22.3507 37.7532H25.0611V45.0776H21.7481C21.1974 45.0776 20.7509 45.5241 20.7509 46.0748C20.7509 46.6255 21.1974 47.0721 21.7481 47.0721H49.0915C49.9113 47.0721 50.5782 46.4052 50.5782 45.5854C50.5782 44.5357 50.0007 43.5661 49.0713 43.0552ZM27.0558 45.0778V37.7534H34.4575C36.4739 37.7534 38.423 38.35 40.0938 39.4787L46.6898 43.9347C47.1478 44.2441 47.6256 44.5361 48.1104 44.8027C48.2359 44.8717 48.3411 44.9666 48.4201 45.0778H27.0558Z" fill="#007FFF"/>
<path d="M29.5265 48.588H26.4462C25.8955 48.588 25.449 49.0345 25.449 49.5852C25.449 50.1359 25.8955 50.5825 26.4462 50.5825H29.5265C30.0772 50.5825 30.5237 50.1359 30.5237 49.5852C30.5237 49.0345 30.0772 48.588 29.5265 48.588Z" fill="#007FFF"/>
<path d="M69.1396 47.751L68.8246 47.2282C67.6375 45.2582 65.6629 43.8711 63.4072 43.4224L60.8326 42.9104V29.861H67.4952C68.867 29.861 69.9829 28.745 69.9829 27.3733V7.95232C69.9829 6.58049 68.8669 5.4646 67.4952 5.4646H48.0742C46.7024 5.4646 45.5865 6.58063 45.5865 7.95232V15.3194C45.5865 15.8701 46.0329 16.3166 46.5837 16.3166C47.1346 16.3166 47.5809 15.8701 47.5809 15.3194V7.95232C47.5809 7.68025 47.8023 7.45891 48.0744 7.45891H67.4955C67.7675 7.45891 67.9889 7.68025 67.9889 7.95232V27.3734C67.9889 27.6455 67.7675 27.8668 67.4955 27.8668H48.0742C47.8022 27.8668 47.5808 27.6455 47.5808 27.3734V21.8023C47.5808 21.2516 47.1344 20.8051 46.5836 20.8051C46.0327 20.8051 45.5864 21.2516 45.5864 21.8023V27.3734C45.5864 28.7453 46.7024 29.8611 48.0741 29.8611H55.6293V41.8758L54.3058 41.6126C52.4793 41.2494 50.6985 40.147 49.5178 39.3493L42.922 34.8935C40.4125 33.1983 37.4855 32.3022 34.4572 32.3022H22.3508C18.3224 32.3022 14.5322 33.8681 11.6785 36.7111C9.87269 38.5102 7.59962 39.7373 5.10492 40.2598L3.67321 40.5596C1.54478 41.0053 0 42.9073 0 45.082V54.7398C0 55.8917 0.680173 56.9386 1.73304 57.4064L5.70498 59.1718C5.94519 60.4278 6.55031 61.6272 7.52073 62.5976C8.8104 63.8873 10.5045 64.5322 12.1987 64.5322C13.8929 64.5322 15.5868 63.8873 16.8766 62.5976C17.7061 61.7682 18.2672 60.7711 18.5632 59.7147H51.6813C51.9773 60.7711 52.5385 61.7682 53.368 62.5976C54.6176 63.8471 56.2787 64.5353 58.0459 64.5353C59.813 64.5353 61.4744 63.8472 62.724 62.5976C63.5535 61.7682 64.1145 60.7711 64.4105 59.7147H66.3023C68.3412 59.7147 70 58.0559 70 56.017V50.8447C69.9997 49.7545 69.7022 48.6848 69.1396 47.751ZM57.6237 29.861H58.8383V42.5137L57.6237 42.2721V29.861ZM15.4662 61.1875C14.5934 62.0603 13.433 62.541 12.1985 62.541C10.9641 62.541 9.80365 62.0603 8.93084 61.1875C7.53071 59.7874 7.21927 57.7053 7.99501 56.001C8.0013 55.9873 8.00731 55.9735 8.0136 55.9598C8.03725 55.9092 8.06227 55.8592 8.08784 55.8094C8.09987 55.7859 8.1119 55.7625 8.12448 55.7393C8.14758 55.6961 8.17165 55.6532 8.19626 55.6105C8.21321 55.5811 8.23057 55.552 8.24821 55.523C8.27104 55.4854 8.29415 55.448 8.31821 55.4109C8.33995 55.3774 8.36237 55.3443 8.38507 55.3114C8.40749 55.2787 8.42977 55.2459 8.45301 55.2138C8.47967 55.177 8.50743 55.1409 8.53532 55.1048C8.55706 55.0766 8.57825 55.0482 8.60067 55.0204C8.63348 54.9798 8.6678 54.9402 8.70198 54.9005C8.72153 54.878 8.74026 54.8549 8.76022 54.8326C8.81108 54.7761 8.86344 54.7208 8.91731 54.6665C8.92196 54.6618 8.9262 54.6569 8.93084 54.6523C8.9411 54.642 8.9519 54.6324 8.96229 54.6223C9.00795 54.5775 9.05389 54.5332 9.10079 54.4907C9.11295 54.4796 9.1258 54.4693 9.13811 54.4584C9.18487 54.417 9.2319 54.3758 9.28002 54.3366C9.28453 54.3329 9.28932 54.3295 9.29383 54.3258C10.9841 52.9579 13.4219 52.9595 15.1101 54.3312C15.112 54.3329 15.1141 54.3343 15.1161 54.3359C15.1677 54.3779 15.2181 54.4219 15.2683 54.4665C15.2773 54.4744 15.2866 54.4819 15.2955 54.49C15.3535 54.5423 15.4103 54.5963 15.4661 54.6521C15.5263 54.7123 15.5842 54.7742 15.6406 54.837C15.6653 54.8646 15.6887 54.8929 15.7126 54.9209C15.7419 54.9551 15.7713 54.9894 15.7994 55.0243C15.831 55.0635 15.8615 55.1034 15.8916 55.1433C15.9085 55.1656 15.9253 55.1881 15.9418 55.2106C15.9783 55.2609 16.0138 55.3118 16.0481 55.3633C16.054 55.3721 16.0597 55.381 16.0655 55.3897C17.2385 57.1814 17.0389 59.6147 15.4662 61.1875ZM61.3135 61.1875C60.4405 62.0603 59.2801 62.541 58.0456 62.541C56.8112 62.541 55.6509 62.0603 54.7781 61.1875C53.2051 59.6147 53.0055 57.181 54.1787 55.3894C54.1843 55.3808 54.1899 55.3722 54.1956 55.3637C54.23 55.3121 54.2656 55.2611 54.3023 55.2105C54.3186 55.1881 54.3352 55.1659 54.3521 55.1439C54.3823 55.1037 54.4129 55.0636 54.4447 55.0241C54.4728 54.9895 54.5018 54.9556 54.5309 54.9217C54.5551 54.8934 54.5787 54.8647 54.6038 54.837C54.6601 54.7742 54.718 54.7124 54.7782 54.6523C55.651 53.7794 56.8113 53.2987 58.0458 53.2987C59.2802 53.2987 60.4407 53.7794 61.3135 54.6523C61.3736 54.7124 61.4316 54.7743 61.4879 54.8371C61.5128 54.8647 61.5362 54.8932 61.5602 54.9213C61.5895 54.9554 61.6188 54.9895 61.6468 55.0243C61.6785 55.0636 61.709 55.1036 61.7392 55.1436C61.756 55.1659 61.7728 55.1882 61.7893 55.2108C61.8258 55.2612 61.8614 55.3119 61.8956 55.3635C61.9015 55.3722 61.9072 55.381 61.913 55.3897C63.0858 57.1813 62.8861 59.6149 61.3135 61.1875ZM68.0057 56.017H68.0054C68.0054 56.9562 67.2413 57.7204 66.302 57.7204H64.6603C64.6212 56.274 64.1107 54.8941 63.192 53.7628C63.1858 53.7551 63.1799 53.7472 63.1737 53.7395C63.1168 53.6702 63.0579 53.6023 62.998 53.5347C62.9827 53.5175 62.9682 53.4997 62.9527 53.4825C62.8893 53.4126 62.8237 53.3441 62.7569 53.2766C62.7456 53.2651 62.7352 53.2531 62.7237 53.2417C61.8646 52.3827 60.8109 51.789 59.662 51.5019C59.1398 51.3713 58.598 51.3042 58.0456 51.3042C57.6039 51.3042 57.1687 51.3472 56.7449 51.4312C55.4735 51.6833 54.3049 52.3047 53.3677 53.2417C53.3565 53.2529 53.3462 53.2647 53.3351 53.2761C53.2681 53.344 53.2023 53.4126 53.1387 53.4828C53.1236 53.4993 53.1097 53.5165 53.0949 53.5332C53.0345 53.6013 52.9749 53.6699 52.9176 53.7399C52.9119 53.7469 52.9065 53.7542 52.9008 53.7613C51.9814 54.8927 51.4703 56.2735 51.4311 57.7205H18.8131C18.7739 56.2717 18.2617 54.8893 17.34 53.7569C17.3357 53.7516 17.3316 53.7462 17.3274 53.7409C17.2672 53.6673 17.2048 53.5953 17.1412 53.5239C17.1294 53.5108 17.1185 53.4973 17.1066 53.4841C17.0321 53.402 16.9555 53.321 16.8764 53.2419C16.554 52.9195 16.2062 52.6373 15.8396 52.3955C14.7396 51.67 13.4691 51.3073 12.1985 51.3073C10.5045 51.3073 8.81026 51.9522 7.5206 53.2419C7.4469 53.3156 7.37567 53.3912 7.30595 53.4677C7.2853 53.4904 7.26548 53.5135 7.24511 53.5364C7.19589 53.592 7.14749 53.6482 7.10032 53.7051C7.07941 53.7304 7.05849 53.7558 7.03798 53.7815C6.98917 53.8423 6.94159 53.9039 6.89511 53.9661C6.88062 53.9855 6.86572 54.0045 6.85163 54.024C6.72667 54.1951 6.61074 54.3714 6.50355 54.5523C6.50054 54.5574 6.49767 54.5626 6.49466 54.5676C6.4423 54.6566 6.39212 54.7469 6.34414 54.8381C6.34277 54.8407 6.3414 54.8434 6.3399 54.846C5.99222 55.5076 5.75843 56.2231 5.65125 56.9654L2.54323 55.584C2.20991 55.4358 1.99458 55.1044 1.99458 54.7398V45.082C1.99458 43.8459 2.87272 42.7649 4.08254 42.5114L5.51426 42.2116C8.38807 41.6096 11.0065 40.1961 13.0865 38.1238C15.5639 35.6557 18.8541 34.2964 22.3512 34.2964H34.4576C37.0866 34.2964 39.6275 35.0743 41.806 36.5458L48.4018 41.0016C49.7254 41.8959 51.7372 43.1348 53.9172 43.5685L63.0185 45.3784C64.725 45.7179 66.2186 46.7672 67.1167 48.2574L67.4317 48.7802C67.8073 49.4032 68.0057 50.1172 68.0057 50.8447V56.017Z" fill="#007FFF"/>
<path d="M14.3393 55.7791C13.7672 55.2072 13.0071 54.8923 12.1984 54.8923C11.3897 54.8923 10.6294 55.2073 10.0577 55.7791C9.4859 56.3508 9.1709 57.1111 9.1709 57.9198C9.1709 58.7285 9.4859 59.4888 10.0577 60.0606C10.6294 60.6323 11.3897 60.9473 12.1985 60.9473C13.0072 60.9473 13.7675 60.6325 14.3393 60.0606C15.5197 58.8801 15.5197 56.9595 14.3393 55.7791ZM12.9289 58.6503C12.7338 58.8454 12.4743 58.9529 12.1984 58.9529C11.9224 58.9529 11.663 58.8454 11.4679 58.6502C11.2728 58.4551 11.1652 58.1957 11.1652 57.9197C11.1652 57.6437 11.2727 57.3843 11.4679 57.1892C11.663 56.9941 11.9224 56.8865 12.1984 56.8865C12.4743 56.8865 12.7338 56.994 12.9289 57.1892C13.3316 57.5921 13.3316 58.2475 12.9289 58.6503Z" fill="#007FFF"/>
<path d="M60.1865 55.7792C59.6147 55.2073 58.8544 54.8923 58.0456 54.8923C57.2369 54.8923 56.4768 55.2072 55.9047 55.7791C54.7245 56.9595 54.7245 58.8801 55.9047 60.0606C56.4766 60.6325 57.2369 60.9473 58.0456 60.9473C58.8544 60.9473 59.6146 60.6325 60.1863 60.0607C60.7582 59.4889 61.0731 58.7286 61.0731 57.92C61.0731 57.1113 60.7582 56.351 60.1865 55.7792ZM58.7761 58.6504C58.581 58.8455 58.3216 58.953 58.0456 58.953C57.7697 58.953 57.5102 58.8455 57.3151 58.6504C56.9124 58.2477 56.9124 57.5922 57.3151 57.1895C57.5102 56.9944 57.7697 56.8868 58.0456 56.8868C58.3216 56.8868 58.581 56.9942 58.7762 57.1895C58.9713 57.3846 59.0788 57.6439 59.0788 57.92C59.0788 58.1957 58.9715 58.4552 58.7761 58.6504Z" fill="#007FFF"/>
</svg>
