<svg width="70" height="70" viewBox="0 0 70 70" fill="none" xmlns="http://www.w3.org/2000/svg">
<path d="M59.7749 24.7749V10.2251H45.256L34.9382 0L24.7749 10.2251H10.2251V24.7749L0 34.9382L10.2251 45.256V59.7749H24.7749L34.9382 70L45.256 59.7749H59.7749V45.256L70 34.9382L59.7749 24.7749ZM25.1456 19.647C28.173 19.647 30.6134 22.0874 30.6134 25.1456C30.6134 26.5958 30.0373 27.9865 29.0119 29.0119C27.9865 30.0373 26.5958 30.6134 25.1456 30.6134C22.0874 30.6134 19.647 28.173 19.647 25.1456C19.647 22.0874 22.0874 19.647 25.1456 19.647ZM44.8853 50.3839C41.8579 50.3839 39.4175 47.9126 39.4175 44.8853C39.4175 43.4351 39.9935 42.0444 41.019 41.019C42.0444 39.9935 43.4351 39.4175 44.8853 39.4175C47.9126 39.4175 50.3839 41.8579 50.3839 44.8853C50.3839 46.3436 49.8046 47.7422 48.7734 48.7734C47.7422 49.8046 46.3436 50.3839 44.8853 50.3839ZM24.1262 50.4766L19.4925 45.8429L45.8429 19.4925L50.4766 24.1262L24.1262 50.4766Z" fill="white"/>
</svg>
