<svg width="99" height="99" viewBox="0 0 99 99" fill="none" xmlns="http://www.w3.org/2000/svg">
<path d="M72.918 36.0312C72.8739 35.5843 72.717 35.156 72.4621 34.7863C72.2073 34.4165 71.8628 34.1175 71.4609 33.9173L50.1886 23.2811C49.8192 23.0962 49.4118 23 48.9987 23C48.5856 23 48.1782 23.0962 47.8088 23.2811L26.5364 33.9173C26.1357 34.1187 25.7922 34.4181 25.538 34.7876C25.2837 35.1571 25.1268 35.5849 25.082 36.0312C25.0527 36.3157 22.5266 64.661 47.9204 75.954C48.2597 76.1071 48.6277 76.1863 49 76.1863C49.3723 76.1863 49.7403 76.1071 50.0796 75.954C75.4734 64.661 72.9473 36.3184 72.918 36.0312ZM49 70.5907C31.001 61.8903 30.1501 43.3223 30.2963 37.9856L49 28.6337L67.6904 37.9803C67.7888 43.2691 66.8182 61.9595 49 70.5907Z" fill="#22BFEA"/>
<path d="M46.3411 51.1504L40.2439 45.0532L36.484 48.8131L46.3411 58.6702L61.5162 43.495L57.7563 39.7352L46.3411 51.1504Z" fill="#22BFEA"/>
<circle cx="49.065" cy="49.065" r="46.565" stroke="#22BFEA" stroke-width="5"/>
</svg>
