<svg width="70" height="70" viewBox="0 0 70 70" fill="none" xmlns="http://www.w3.org/2000/svg">
<path d="M68.1202 30.4466C68.118 30.445 68.1164 30.4429 68.1148 30.4413L39.5575 1.88789C38.3402 0.670242 36.7219 0 35.0004 0C33.279 0 31.6606 0.670242 30.4429 1.88789L1.90044 30.4268C1.89083 30.4364 1.88068 30.4466 1.8716 30.4562C-0.628044 32.97 -0.623771 37.0486 1.88388 39.556C3.02956 40.7021 4.54216 41.3654 6.15999 41.4354C6.22622 41.4418 6.29245 41.445 6.35921 41.445H7.49687V62.458C7.49687 66.6167 10.881 69.9999 15.0401 69.9999H26.2127C27.3455 69.9999 28.2637 69.0814 28.2637 67.9492V51.4746C28.2637 49.5771 29.8078 48.0336 31.7055 48.0336H38.2954C40.1931 48.0336 41.7366 49.5771 41.7366 51.4746V67.9492C41.7366 69.0814 42.6548 69.9999 43.7876 69.9999H54.9602C59.1199 69.9999 62.5035 66.6167 62.5035 62.458V41.445H63.5589C65.2798 41.445 66.8981 40.7747 68.1164 39.5565C70.6268 37.0454 70.6278 32.9593 68.1202 30.4466ZM65.2157 36.6566C64.7729 37.0993 64.1843 37.3434 63.5589 37.3434H60.4525C59.3196 37.3434 58.4015 38.2615 58.4015 39.3942V62.458C58.4015 64.3549 56.8579 65.8984 54.9602 65.8984H45.8386V51.4746C45.8386 47.3159 42.455 43.9321 38.2954 43.9321H31.7055C27.5458 43.9321 24.1617 47.3159 24.1617 51.4746V65.8984H15.0401C13.143 65.8984 11.5988 64.3549 11.5988 62.458V39.3942C11.5988 38.2615 10.6807 37.3434 9.54786 37.3434H6.49487C6.46283 37.3413 6.43131 37.3397 6.39873 37.3391C5.78771 37.3285 5.21461 37.086 4.78518 36.6561C3.87185 35.7428 3.87185 34.2566 4.78518 33.3428C4.78572 33.3428 4.78572 33.3423 4.78625 33.3417L4.78785 33.3401L33.3441 4.78782C33.7864 4.34509 34.3745 4.10156 35.0004 4.10156C35.6259 4.10156 36.2139 4.34509 36.6567 4.78782L65.2066 33.3342C65.2109 33.3385 65.2157 33.3428 65.2199 33.3471C66.1285 34.2619 66.1269 35.745 65.2157 36.6566Z" fill="#007FFF"/>
<path fill-rule="evenodd" clip-rule="evenodd" d="M50.3637 33.759C51.865 31.9911 52.0499 29.4551 50.8208 27.4882C51.2187 26.5229 51.158 25.4293 50.6557 24.5138C50.1534 23.5984 49.2636 22.9597 48.2355 22.7767C47.6392 19.2633 44.6061 16.6851 41.0422 16.6622C40.9681 16.6622 40.8961 16.6679 40.824 16.6735C40.7791 16.677 40.7341 16.6806 40.6884 16.6827C40.1438 15.7707 39.2071 15.1625 38.1522 15.0361C37.0973 14.9097 36.0434 15.2793 35.2986 16.0368C34.3219 15.3703 33.1671 15.0131 31.9846 15.0118C30.1096 15.0209 28.3482 15.912 27.2301 17.4171C25.9629 17.0091 24.5777 17.2185 23.4876 17.9827C22.3976 18.7469 21.7287 19.9777 21.6803 21.308C20.3529 21.8235 19.4775 23.1002 19.475 24.524C19.4783 24.7823 19.511 25.0394 19.5727 25.2902C18.7913 26.4443 18.3748 27.8065 18.377 29.2002C18.377 33.0794 21.5174 36.2264 25.3969 36.235C25.9993 36.2352 26.5991 36.1569 27.1813 36.0023C27.9396 37.5385 29.3874 38.6191 31.076 38.909C32.7646 39.199 34.49 38.6634 35.7174 37.4681C36.3775 37.6838 37.0621 37.8157 37.7551 37.8607C38.1449 39.4779 39.3406 40.45 41.9181 41.3138C42.6481 41.5426 43.2994 41.9715 43.798 42.5518C44.2951 43.1441 45.0269 43.4888 45.8002 43.4948C46.1368 43.495 46.4699 43.4269 46.7794 43.2946C47.7171 42.8942 48.3256 41.9732 48.3261 40.9537C48.3261 40.6876 48.2836 40.4232 48.2001 40.1705C47.9896 39.504 47.7048 38.8633 47.3511 38.2604C48.8975 37.2038 49.9766 35.5914 50.3637 33.759ZM44.2083 38.0348C43.845 38.0939 43.5877 38.4218 43.6167 38.7887C43.6457 39.1557 43.9513 39.4391 44.3194 39.4404C44.3573 39.4404 44.3951 39.4376 44.4326 39.432C45.0118 39.3377 45.5773 39.1731 46.1165 38.9417C46.4265 39.4673 46.6743 40.0271 46.8551 40.6098C46.8923 40.7202 46.9112 40.8358 46.911 40.9523C46.9106 41.4053 46.64 41.8144 46.2233 41.9922C45.746 42.1801 45.202 42.0369 44.8791 41.6385C44.2145 40.8599 43.3452 40.283 42.3695 39.9732C40.3078 39.2827 39.5288 38.6524 39.2204 37.8232C39.7446 37.771 40.2628 37.6689 40.7677 37.5183C41.0093 37.4441 41.1931 37.2467 41.2496 37.0004C41.3062 36.754 41.227 36.4962 41.042 36.324C40.8569 36.1519 40.594 36.0915 40.3524 36.1657C39.8441 36.3211 39.3197 36.4177 38.7895 36.4536C37.7643 36.5348 36.7342 36.3789 35.779 35.998C35.4985 35.9081 35.1912 35.9842 34.9852 36.1947C34.0611 37.2722 32.63 37.771 31.2363 37.5014C29.8426 37.2318 28.7008 36.2352 28.2454 34.8909C27.864 33.7858 27.9909 32.5686 28.5921 31.5659C28.7929 31.2307 28.6839 30.7961 28.3487 30.5953C28.0134 30.3945 27.5788 30.5034 27.378 30.8387C27.1485 31.2254 26.9686 31.6394 26.8424 32.071C26.4386 32.0817 26.0472 31.9308 25.7551 31.652C25.4629 31.3731 25.294 30.9892 25.2858 30.5854V30.5635C25.2853 30.377 25.2102 30.1984 25.0774 30.0676C24.9445 29.9367 24.7648 29.8644 24.5783 29.8666C24.1854 29.8721 23.87 30.1925 23.8708 30.5854C23.8726 32.1286 25.0824 33.4002 26.6238 33.4788C26.6238 33.5011 26.6216 33.5232 26.6195 33.5453C26.6174 33.5674 26.6153 33.5896 26.6153 33.6118C26.6155 33.9667 26.6506 34.3207 26.72 34.6688C24.6145 35.1866 22.3994 34.442 21.0344 32.7576C19.6694 31.0732 19.4001 28.752 20.3431 26.7999C20.5752 27.0693 20.8475 27.3012 21.1504 27.4875C21.4853 27.6891 21.9202 27.5811 22.1218 27.2463C22.3235 26.9114 22.2154 26.4766 21.8806 26.275C21.0945 25.8024 20.7195 24.8642 20.9632 23.9801C21.207 23.0961 22.0098 22.4825 22.927 22.4795C23.5693 22.4777 24.1739 22.7826 24.5543 23.3002C24.7877 23.6137 25.2312 23.6786 25.5448 23.4452C25.8584 23.2117 25.9233 22.7683 25.6898 22.4548C25.0845 21.6355 24.1445 21.1298 23.1272 21.076C23.3309 19.674 24.5305 18.6324 25.9474 18.6275C26.1353 18.6297 26.3226 18.6508 26.5063 18.6905C26.4062 18.9334 26.3223 19.1828 26.2551 19.4368C26.1671 19.8113 26.3944 20.1875 26.767 20.2837C27.1395 20.3799 27.5206 20.1608 27.6249 19.7905C27.9898 18.3668 29.0308 17.2131 30.4097 16.704C31.7886 16.1948 33.3296 16.3953 34.5324 17.2402C34.3785 17.6322 34.2984 18.0493 34.296 18.4704C34.296 18.8612 34.6128 19.1779 35.0036 19.1779C35.3943 19.1779 35.7111 18.8612 35.7111 18.4704C35.6973 17.7336 36.0826 17.0468 36.7186 16.6744C37.3546 16.3019 38.1421 16.3019 38.7781 16.6744C39.4141 17.0468 39.7994 17.7336 39.7857 18.4704C39.7857 18.8612 40.1024 19.1779 40.4932 19.1779C40.8839 19.1779 41.2007 18.8612 41.2007 18.4704C41.1949 18.3408 41.1819 18.2116 41.1618 18.0835C43.9175 18.1566 46.2581 20.122 46.8063 22.8233C46.3547 22.9309 45.9298 23.1295 45.5576 23.407C45.245 23.6414 45.1816 24.0848 45.4161 24.3974C45.6505 24.71 46.094 24.7733 46.4066 24.5389C47.1805 23.9637 48.2513 24.0082 48.9747 24.6457C49.6982 25.2832 49.877 26.3398 49.4036 27.1798C49.1919 27.5508 48.8707 27.8474 48.4838 28.0287C48.13 28.1948 47.9778 28.6162 48.1439 28.97C48.31 29.3237 48.7314 29.4759 49.0852 29.3099C49.3789 29.17 49.6513 28.9895 49.8946 28.7736C50.4995 30.1836 50.2269 31.8167 49.197 32.9539L49.1829 32.9688C47.9751 34.2751 46.0504 34.6283 44.4574 33.8361C44.2498 33.732 44.0525 33.6086 43.868 33.4675C44.5644 32.5865 44.688 31.3821 44.185 30.3781C44.0086 30.0319 43.5859 29.8928 43.2383 30.0665C42.8907 30.2401 42.7482 30.6617 42.9192 31.0106C43.2503 31.6738 43.0442 32.4794 42.4353 32.9023C42.0785 33.1398 41.6376 33.215 41.2222 33.1092C40.8068 33.0033 40.4557 32.7263 40.2562 32.3469C40.0797 32.0007 39.6571 31.8616 39.3095 32.0353C38.9619 32.209 38.8194 32.6305 38.9904 32.9794C39.6699 34.3649 41.3228 34.9662 42.7339 34.3412C43.0603 34.6384 43.4237 34.8923 43.815 35.0968C45.1905 35.8082 46.809 35.8806 48.2426 35.2948C47.3643 36.7554 45.8897 37.7574 44.2083 38.0362V38.0348ZM41.0046 26.4638C41.0573 26.2135 40.9707 25.9542 40.7781 25.7857C40.5856 25.6172 40.3171 25.5658 40.0759 25.6513C39.8348 25.7367 39.6585 25.9457 39.615 26.1978C39.3516 27.5878 38.3237 28.7086 36.9617 29.0911C35.5997 29.4735 34.1386 29.0516 33.1901 28.002C32.9238 27.7356 32.4954 27.7245 32.2158 27.9769C31.9361 28.2292 31.9031 28.6564 32.1408 28.9486C32.926 29.8162 33.9834 30.3901 35.1386 30.5759C34.6375 31.4542 33.7025 31.9948 32.6913 31.991C32.3005 31.991 31.9838 32.3077 31.9838 32.6985C31.9838 33.0892 32.3005 33.406 32.6913 33.406C34.484 33.4117 36.0837 32.2812 36.6767 30.5894C38.8496 30.2739 40.5855 28.6191 41.0046 26.4638ZM32.1736 22.087C32.5643 22.087 32.8811 22.4038 32.8811 22.7945C32.8811 23.1853 32.5643 23.502 32.1736 23.502C30.806 23.502 29.6973 24.6107 29.6973 25.9783C29.6973 26.3691 29.3805 26.6859 28.9898 26.6859C28.599 26.6859 28.2822 26.3691 28.2822 25.9783C28.2846 23.8302 30.0254 22.0894 32.1736 22.087Z" fill="#007FFF"/>
</svg>
