<svg width="70" height="70" viewBox="0 0 70 70" fill="none" xmlns="http://www.w3.org/2000/svg">
<path d="M35.0017 21.875C27.7689 21.875 21.8761 27.7676 21.8761 35C21.8761 42.2324 27.7689 48.125 35.0017 48.125C42.2345 48.125 48.1273 42.2324 48.1273 35C48.1273 27.7676 42.2345 21.875 35.0017 21.875ZM68.6908 32.8809L55.7429 26.4141L60.3232 12.6875C60.9385 10.8281 59.1747 9.06445 57.3289 9.69336L43.6017 14.2734L37.1209 1.3125C36.2459 -0.4375 33.7575 -0.4375 32.8825 1.3125L26.4153 14.2598L12.6744 9.67969C10.815 9.06445 9.05122 10.8281 9.68016 12.6738L14.2605 26.4004L1.31256 32.8809C-0.437521 33.7559 -0.437521 36.2441 1.31256 37.1191L14.2605 43.5859L9.68016 57.3262C9.06489 59.1855 10.8286 60.9492 12.6744 60.3203L26.4017 55.7402L32.8688 68.6875C33.7438 70.4375 36.2322 70.4375 37.1073 68.6875L43.5744 55.7402L57.3016 60.3203C59.1611 60.9355 60.9248 59.1719 60.2959 57.3262L55.7156 43.5996L68.6635 37.1328C70.4409 36.2441 70.4409 33.7559 68.6908 32.8809ZM47.3753 47.373C40.5527 54.1953 29.4506 54.1953 22.628 47.373C15.8055 40.5508 15.8055 29.4492 22.628 22.627C29.4506 15.8047 40.5527 15.8047 47.3753 22.627C54.1979 29.4492 54.1979 40.5508 47.3753 47.373Z" fill="white"/>
</svg>
