<svg width="70" height="70" viewBox="0 0 70 70" fill="none" xmlns="http://www.w3.org/2000/svg">
<path d="M68.9746 29.668H65.7617C65.1954 29.668 64.7363 30.1271 64.7363 30.6934C64.7363 31.2596 65.1954 31.7188 65.7617 31.7188H67.9492V33.7695H33.1543V31.7188H60.9766C61.5429 31.7188 62.002 31.2596 62.002 30.6934C62.002 30.1271 61.5429 29.668 60.9766 29.668H33.1543V19.4141C33.1543 18.5914 32.8336 17.8188 32.2537 17.2411C31.6734 16.6586 30.9008 16.3379 30.0781 16.3379C28.3819 16.3379 27.002 17.7178 27.002 19.4141V20.0977H17.2949V19.4141C17.2949 18.5914 16.9742 17.8188 16.3944 17.2411C15.814 16.6586 15.0414 16.3379 14.2188 16.3379C12.5225 16.3379 11.1426 17.7178 11.1426 19.4141V21.8714C11.1426 22.4377 11.6017 22.8968 12.168 22.8968C12.7343 22.8968 13.1934 22.4377 13.1934 21.8714V19.4141C13.1934 18.8486 13.6533 18.3887 14.2188 18.3887C14.4922 18.3887 14.7489 18.4952 14.9442 18.6912C15.1376 18.8839 15.2441 19.1406 15.2441 19.4141V47.1594C14.7241 46.7756 14.0839 46.4189 13.1934 46.2768V26.1904C13.1934 25.6241 12.7343 25.165 12.168 25.165C11.6017 25.165 11.1426 25.6241 11.1426 26.1904V29.668H1.02539C0.459102 29.668 0 30.1271 0 30.6934V61.3184C0 66.1054 3.89457 70 8.68164 70H61.3184C66.1054 70 70 66.1054 70 61.3184V30.6934C70 30.1271 69.5409 29.668 68.9746 29.668ZM29.0527 19.4141C29.0527 18.8487 29.5127 18.3887 30.0781 18.3887C30.3516 18.3887 30.6083 18.4952 30.8036 18.6912C30.997 18.8839 31.1035 19.1406 31.1035 19.4141V47.966C30.6229 48.3368 30.155 48.5819 29.3364 48.5819C29.2363 48.5819 29.143 48.5771 29.0527 48.57V19.4141ZM27.002 33.7695H17.2949V31.7188H27.002V33.7695ZM27.002 35.8203V39.2383H17.2949V35.8203H27.002ZM17.2949 41.2891H27.002V43.3398H17.2949V41.2891ZM27.002 29.668H17.2949V26.25H27.002V29.668ZM17.2949 45.3906H27.002V47.5009C26.2698 46.8945 25.3377 46.2109 23.6742 46.2109C21.8859 46.2109 20.9427 47.0009 20.1846 47.6355C19.5286 48.1849 19.0548 48.5818 18.0117 48.5818C17.7379 48.5818 17.504 48.5537 17.2949 48.5034V45.3906ZM27.002 22.1484V24.1992H17.2949V22.1484H27.002ZM2.05078 35.8203H11.1426V46.3481C10.0956 46.6017 9.42594 47.1618 8.86006 47.6357C8.20422 48.185 7.73021 48.5818 6.68732 48.5818C5.64457 48.5818 5.17057 48.1849 4.51473 47.6357C3.91713 47.1352 3.20223 46.5397 2.05078 46.3096V35.8203ZM2.05078 31.7188H11.1426V33.7695H2.05078V31.7188ZM67.9492 61.3184C67.9492 64.9746 64.9746 67.9492 61.3184 67.9492H8.68164C5.02537 67.9492 2.05078 64.9746 2.05078 61.3184V48.4362C2.47598 48.6031 2.8041 48.878 3.19799 49.2078C3.95582 49.8426 4.89918 50.6326 6.68732 50.6326C8.47547 50.6326 9.41883 49.8426 10.1767 49.2079C10.8325 48.6586 11.3065 48.2617 12.3494 48.2617C13.3923 48.2617 13.8663 48.6586 14.5223 49.2079C14.8732 49.5019 15.2653 49.8282 15.7612 50.0948C15.7775 50.1041 15.794 50.1128 15.8108 50.1212C16.3774 50.417 17.079 50.6327 18.0119 50.6327C19.8002 50.6327 20.7434 49.8427 21.5013 49.2081C22.1573 48.6587 22.6313 48.2619 23.6744 48.2619C24.7172 48.2619 25.1912 48.6587 25.8472 49.2081C26.3292 49.6117 26.887 50.0771 27.6881 50.3632C27.7041 50.3688 27.7199 50.3746 27.7361 50.3794C28.1848 50.5337 28.7075 50.6327 29.3366 50.6327C31.1247 50.6327 32.0679 49.8427 32.8258 49.2079C33.4816 48.6586 33.9555 48.2619 34.9982 48.2619C36.0411 48.2619 36.5151 48.6587 37.1711 49.2081C37.9291 49.8429 38.8724 50.6327 40.6606 50.6327C40.937 50.6327 41.2058 50.6134 41.4596 50.5756C42.0197 50.4917 42.4058 49.9697 42.322 49.4097C42.2382 48.8497 41.7158 48.4639 41.1562 48.5473C41.0024 48.5703 40.8357 48.5819 40.6606 48.5819C39.6177 48.5819 39.1437 48.185 38.4877 47.6357C37.7297 47.0009 36.7864 46.2111 34.9982 46.2111C34.2519 46.2111 33.6543 46.3497 33.1544 46.5563V35.8203H67.9492V46.3095C66.7975 46.5396 66.0825 47.135 65.4847 47.6355C64.8286 48.1849 64.3546 48.5818 63.3114 48.5818C62.2683 48.5818 61.7941 48.1849 61.1382 47.6355C60.3801 47.0008 59.4367 46.2109 57.6483 46.2109C55.86 46.2109 54.9168 47.0009 54.1588 47.6355C53.5028 48.1849 53.0288 48.5818 51.9858 48.5818C50.9428 48.5818 50.4688 48.1849 49.8127 47.6355C49.0547 47.0008 48.1113 46.2109 46.323 46.2109C45.7656 46.2109 45.2644 46.2857 44.791 46.4397C44.2524 46.6148 43.9578 47.1933 44.1329 47.7319C44.3081 48.2705 44.8865 48.5652 45.4252 48.39C45.6906 48.3037 45.9843 48.2617 46.323 48.2617C47.3661 48.2617 47.8401 48.6586 48.4961 49.2079C49.254 49.8427 50.1974 50.6326 51.9857 50.6326C53.7739 50.6326 54.7172 49.8426 55.4753 49.2079C56.1312 48.6586 56.6051 48.2617 57.6481 48.2617C58.6913 48.2617 59.1654 48.6586 59.8214 49.2079C60.5795 49.8426 61.5229 50.6326 63.3113 50.6326C65.0997 50.6326 66.0431 49.8426 66.8012 49.2079C67.1952 48.8779 67.5236 48.603 67.9491 48.436V61.3184H67.9492Z" fill="#007FFF"/>
<path d="M54.4141 4.85352C50.2301 4.85352 46.8262 8.2574 46.8262 12.4414C46.8262 16.6254 50.2301 20.0293 54.4141 20.0293C58.5981 20.0293 62.002 16.6254 62.002 12.4414C62.002 8.2574 58.5981 4.85352 54.4141 4.85352ZM54.4141 17.9785C51.3609 17.9785 48.877 15.4946 48.877 12.4414C48.877 9.3882 51.3609 6.9043 54.4141 6.9043C57.4673 6.9043 59.9512 9.3882 59.9512 12.4414C59.9512 15.4946 57.4673 17.9785 54.4141 17.9785Z" fill="#007FFF"/>
<path d="M54.4141 3.96484C54.9804 3.96484 55.4395 3.50574 55.4395 2.93945V1.02539C55.4395 0.459102 54.9804 0 54.4141 0C53.8478 0 53.3887 0.459102 53.3887 1.02539V2.93945C53.3887 3.50574 53.8478 3.96484 54.4141 3.96484Z" fill="#007FFF"/>
<path d="M53.457 21.8066V23.7207C53.457 24.287 53.9161 24.7461 54.4824 24.7461C55.0487 24.7461 55.5078 24.287 55.5078 23.7207V21.8066C55.5078 21.2404 55.0487 20.7812 54.4824 20.7812C53.9161 20.7812 53.457 21.2404 53.457 21.8066Z" fill="#007FFF"/>
<path d="M48.8094 4.71595C48.9993 5.04489 49.344 5.22878 49.6984 5.22878C49.8723 5.22878 50.0488 5.18448 50.2101 5.09124C50.7005 4.80809 50.8685 4.18097 50.5854 3.69056L49.6284 2.03298C49.3452 1.54257 48.7178 1.37454 48.2277 1.65769C47.7373 1.94083 47.5692 2.56796 47.8524 3.05837L48.8094 4.71595Z" fill="#007FFF"/>
<path d="M58.6774 19.6205C58.187 19.9036 58.0189 20.5308 58.3021 21.0212L59.2591 22.6787C59.449 23.0077 59.7937 23.1916 60.1481 23.1916C60.322 23.1916 60.4985 23.1473 60.6598 23.054C61.1502 22.7709 61.3183 22.1438 61.0351 21.6534L60.0781 19.9958C59.7949 19.5052 59.1675 19.3372 58.6774 19.6205Z" fill="#007FFF"/>
<path d="M44.0739 7.58719L45.7314 8.54422C45.8929 8.63747 46.0693 8.68176 46.2432 8.68176C46.5976 8.68176 46.9422 8.49788 47.1321 8.16893C47.4153 7.67852 47.2472 7.05139 46.7568 6.76825L45.0993 5.81122C44.6089 5.52794 43.9817 5.69596 43.6986 6.18651C43.4154 6.67692 43.5835 7.30405 44.0739 7.58719Z" fill="#007FFF"/>
<path d="M62.1052 17.9187L63.7628 18.8757C63.9243 18.969 64.1006 19.0133 64.2745 19.0133C64.6289 19.0133 64.9736 18.8294 65.1635 18.5004C65.4466 18.01 65.2786 17.3829 64.7882 17.0997L63.1306 16.1427C62.6402 15.8594 62.0131 16.0274 61.7299 16.518C61.4466 17.0084 61.6147 17.6355 62.1052 17.9187Z" fill="#007FFF"/>
<path d="M43.0664 13.3984H44.9805C45.5468 13.3984 46.0059 12.9393 46.0059 12.373C46.0059 11.8068 45.5468 11.3477 44.9805 11.3477H43.0664C42.5001 11.3477 42.041 11.8068 42.041 12.373C42.041 12.9393 42.5001 13.3984 43.0664 13.3984Z" fill="#007FFF"/>
<path d="M62.8223 12.3047C62.8223 12.871 63.2814 13.3301 63.8477 13.3301H65.7617C66.328 13.3301 66.7871 12.871 66.7871 12.3047C66.7871 11.7384 66.328 11.2793 65.7617 11.2793H63.8477C63.2814 11.2793 62.8223 11.7384 62.8223 12.3047Z" fill="#007FFF"/>
<path d="M45.7314 16.2017L44.0739 17.1587C43.5835 17.4419 43.4154 18.069 43.6986 18.5594C43.8885 18.8884 44.2332 19.0722 44.5875 19.0722C44.7614 19.0722 44.9379 19.0278 45.0993 18.9347L46.7568 17.9777C47.2472 17.6945 47.4153 17.0674 47.1321 16.577C46.849 16.0866 46.2216 15.9187 45.7314 16.2017Z" fill="#007FFF"/>
<path d="M62.5509 8.6225C62.7248 8.6225 62.9013 8.57807 63.0626 8.48496L64.7202 7.52793C65.2106 7.24479 65.3786 6.61766 65.0955 6.12725C64.8124 5.6367 64.185 5.46895 63.6948 5.75195L62.0373 6.70899C61.5468 6.99213 61.3788 7.61926 61.662 8.10967C61.8519 8.43861 62.1965 8.6225 62.5509 8.6225Z" fill="#007FFF"/>
<path d="M48.8094 20.03L47.8524 21.6876C47.5692 22.178 47.7373 22.8051 48.2277 23.0883C48.3891 23.1815 48.5655 23.2258 48.7394 23.2258C49.0938 23.2258 49.4385 23.0419 49.6284 22.713L50.5854 21.0554C50.8685 20.565 50.7005 19.9379 50.2101 19.6547C49.7196 19.3713 49.0926 19.5395 48.8094 20.03Z" fill="#007FFF"/>
<path d="M58.5588 5.05691C58.7203 5.15015 58.8967 5.19444 59.0706 5.19444C59.4249 5.19444 59.7696 5.01056 59.9595 4.68161L60.9165 3.02404C61.1997 2.53363 61.0317 1.9065 60.5413 1.62335C60.0508 1.34007 59.4237 1.5081 59.1406 1.99865L58.1835 3.65622C57.9003 4.14663 58.0683 4.77376 58.5588 5.05691Z" fill="#007FFF"/>
<path d="M16.4062 54.209H12.3047C11.7384 54.209 11.2793 54.6681 11.2793 55.2344C11.2793 55.8007 11.7384 56.2598 12.3047 56.2598H16.4062C16.9725 56.2598 17.4316 55.8007 17.4316 55.2344C17.4316 54.6681 16.9725 54.209 16.4062 54.209Z" fill="#007FFF"/>
<path d="M57.6953 60.2246H52.2266C51.6603 60.2246 51.2012 60.6837 51.2012 61.25C51.2012 61.8163 51.6603 62.2754 52.2266 62.2754H57.6953C58.2616 62.2754 58.7207 61.8163 58.7207 61.25C58.7207 60.6837 58.2616 60.2246 57.6953 60.2246Z" fill="#007FFF"/>
<path d="M45.9375 56.2598H34.4531C33.8868 56.2598 33.4277 56.7189 33.4277 57.2852C33.4277 57.8514 33.8868 58.3105 34.4531 58.3105H45.9375C46.5038 58.3105 46.9629 57.8514 46.9629 57.2852C46.9629 56.7189 46.5038 56.2598 45.9375 56.2598Z" fill="#007FFF"/>
<path d="M27.3438 59.2676H19.6875C19.1212 59.2676 18.6621 59.7267 18.6621 60.293C18.6621 60.8593 19.1212 61.3184 19.6875 61.3184H27.3438C27.91 61.3184 28.3691 60.8593 28.3691 60.293C28.3691 59.7267 27.91 59.2676 27.3438 59.2676Z" fill="#007FFF"/>
</svg>
