<svg width="70" height="70" viewBox="0 0 70 70" fill="none" xmlns="http://www.w3.org/2000/svg">
<g clip-path="url(#clip0)">
<path d="M62.5292 34.9338H53.6911V3.08045C53.6911 1.30684 52.2475 -0.136719 50.4734 -0.136719H6.63514C4.861 -0.136719 3.41797 1.30684 3.41797 3.08045V44.7269C3.41797 46.501 4.861 47.9441 6.63514 47.9441H45.0644V61.1668C45.0644 61.7329 45.5232 62.1922 46.0898 62.1922C46.6559 62.1922 47.1152 61.7329 47.1152 61.1668V39.2469C47.1152 37.9993 48.1299 36.9846 49.3775 36.9846H50.5438V38.151C50.5438 39.9252 51.9874 41.3682 53.7615 41.3682H58.1451C59.9192 41.3682 61.3623 39.9252 61.3623 38.151V36.9846H62.5287C63.7762 36.9846 64.7915 37.9993 64.7915 39.2469V65.5498C64.7915 66.7974 63.7762 67.8126 62.5287 67.8126H49.3775C48.1299 67.8126 47.1152 66.7974 47.1152 65.5498C47.1152 64.9837 46.6559 64.5244 46.0898 64.5244C45.5232 64.5244 45.0644 64.9837 45.0644 65.5498C45.0644 67.9285 46.9988 69.8634 49.3775 69.8634H62.5287C64.9074 69.8634 66.8422 67.9285 66.8422 65.5498V39.2469C66.8422 36.8687 64.9074 34.9338 62.5292 34.9338ZM46.2473 36.2845C45.8527 36.1173 45.426 36.0297 44.9939 36.0297H12.1151C11.4716 36.0297 10.9487 35.5064 10.9487 34.8634C10.9487 34.2203 11.4721 33.697 12.1151 33.697H44.9939C46.7681 33.697 48.2111 32.2534 48.2111 30.4798C48.2111 28.7057 46.7675 27.2621 44.9939 27.2621H16.4987C15.9326 27.2621 15.4733 27.7214 15.4733 28.2875C15.4733 28.8541 15.9326 29.3129 16.4987 29.3129H44.9939C45.6369 29.3129 46.1603 29.8363 46.1603 30.4798C46.1603 31.1228 45.6369 31.6462 44.9939 31.6462H12.1151C10.341 31.6462 8.89795 33.0892 8.89795 34.8634C8.89795 36.6375 10.341 38.0805 12.1151 38.0805H44.9939C45.0697 38.0805 45.145 38.0907 45.2187 38.1051C45.1189 38.4688 45.0644 38.8517 45.0644 39.2469V40.409C45.0409 40.4106 45.0174 40.4138 44.9939 40.4138H13.211C12.6449 40.4138 12.1856 40.8726 12.1856 41.4392C12.1856 42.0053 12.6449 42.4646 13.211 42.4646H44.9939C45.0174 42.4646 45.0409 42.463 45.0644 42.4619V45.8938H6.63514C5.99213 45.8938 5.46875 45.3704 5.46875 44.7269V3.08045C5.46875 2.43744 5.99213 1.91407 6.63514 1.91407H50.4734C51.1169 1.91407 51.6403 2.43744 51.6403 3.08045V34.9338H49.3775C48.1459 34.9338 47.034 35.4535 46.2473 36.2845ZM59.312 38.151C59.312 38.7946 58.7886 39.3174 58.1451 39.3174H53.7615C53.1185 39.3174 52.5952 38.7946 52.5952 38.151V36.9846H59.312V38.151Z" fill="#22BFEA"/>
<path d="M55.9532 44.7975C55.3871 44.7975 54.9278 45.2568 54.9278 45.8229V55.8813C53.0431 56.3428 51.6401 58.0454 51.6401 60.0705C51.6401 62.4487 53.575 64.3836 55.9532 64.3836C58.3319 64.3836 60.2662 62.4487 60.2662 60.0705C60.2662 58.0454 58.8633 56.3428 56.9786 55.8813V45.8229C56.9786 45.2568 56.5198 44.7975 55.9532 44.7975ZM58.2155 60.0705C58.2155 61.3181 57.2008 62.3328 55.9532 62.3328C54.7056 62.3328 53.6909 61.3181 53.6909 60.0705C53.6909 58.8229 54.7056 57.8082 55.9532 57.8082C57.2008 57.8082 58.2155 58.8229 58.2155 60.0705Z" fill="#22BFEA"/>
<path d="M60.3374 50.1364H61.4333C61.9994 50.1364 62.4587 49.6771 62.4587 49.111C62.4587 48.5443 61.9994 48.0856 61.4333 48.0856H60.3374C59.7708 48.0856 59.312 48.5443 59.312 49.111C59.312 49.6771 59.7708 50.1364 60.3374 50.1364Z" fill="#22BFEA"/>
<path d="M60.3374 54.5199H61.4333C61.9994 54.5199 62.4587 54.0606 62.4587 53.4945C62.4587 52.9284 61.9994 52.4691 61.4333 52.4691H60.3374C59.7708 52.4691 59.312 52.9284 59.312 53.4945C59.312 54.0606 59.7708 54.5199 60.3374 54.5199Z" fill="#22BFEA"/>
<path d="M12.1151 11.7775H40.6098C41.1759 11.7775 41.6352 11.3182 41.6352 10.7521C41.6352 10.186 41.1759 9.72669 40.6098 9.72669H12.1151C11.4716 9.72669 10.9487 9.20332 10.9487 8.56031C10.9487 7.9173 11.4721 7.39392 12.1151 7.39392H43.898C44.4641 7.39392 44.9234 6.93463 44.9234 6.36853C44.9234 5.8019 44.4641 5.34314 43.898 5.34314H12.1151C10.341 5.34314 8.89795 6.78617 8.89795 8.56031C8.89795 10.3345 10.341 11.7775 12.1151 11.7775Z" fill="#22BFEA"/>
<path d="M44.9939 9.72693C44.4273 9.72693 43.9685 10.1862 43.9685 10.7523C43.9685 11.3184 44.4273 11.7777 44.9939 11.7777C45.6369 11.7777 46.1603 12.3011 46.1603 12.9441C46.1603 13.5876 45.6369 14.111 44.9939 14.111H12.1151C10.341 14.111 8.89795 15.554 8.89795 17.3282C8.89795 19.1023 10.341 20.5453 12.1151 20.5453H26.3622C26.9288 20.5453 27.3876 20.0861 27.3876 19.52C27.3876 18.9539 26.9288 18.4946 26.3622 18.4946H12.1151C11.4716 18.4946 10.9487 17.9712 10.9487 17.3282C10.9487 16.6846 11.4721 16.1618 12.1151 16.1618H44.9939C46.7681 16.1618 48.2111 14.7182 48.2111 12.9441C48.2111 11.1705 46.7681 9.72693 44.9939 9.72693Z" fill="#22BFEA"/>
<path d="M44.9939 18.4944H30.7458C30.1797 18.4944 29.7204 18.9537 29.7204 19.5198C29.7204 20.0859 30.1797 20.5452 30.7458 20.5452H44.9939C45.6369 20.5452 46.1603 21.0685 46.1603 21.7116C46.1603 22.3551 45.6369 22.8785 44.9939 22.8785H12.1151C10.341 22.8785 8.89795 24.3215 8.89795 26.0956C8.89795 27.8693 10.341 29.3128 12.1151 29.3128C12.6812 29.3128 13.1405 28.8535 13.1405 28.2874C13.1405 27.7213 12.6812 27.262 12.1151 27.262C11.4716 27.262 10.9487 26.7387 10.9487 26.0956C10.9487 25.4521 11.4721 24.9293 12.1151 24.9293H44.9939C46.7681 24.9293 48.2111 23.4857 48.2111 21.7116C48.2111 19.9379 46.7681 18.4944 44.9939 18.4944Z" fill="#22BFEA"/>
</g>
<defs>
<clipPath id="clip0">
<rect width="70" height="70" fill="white"/>
</clipPath>
</defs>
</svg>
